<svg width="0" height="0" class="hidden">
  <symbol id="greenpeace" xmlns="http://www.w3.org/2000/svg" xmlns:xlink="http://www.w3.org/1999/xlink" viewBox="0 0 168.625 26.051">
    <defs>
      <clipPath id="clip-path">
        <path id="path20" d="M0-78.519H168.625v-26.051H0Z" transform="translate(0 104.569)" fill="000"></path>
      </clipPath>
    </defs>
    <g id="g14">
      <g id="g16" clip-path="url(#clip-path)">
        <path id="path22" d="M4.9-94.253a.646.646,0,0,1-.189.242.334.334,0,0,1-.161.269c0,.165-.279.237-.314.413a.6.6,0,0,1-.224.394c0,.148-.242.2-.242.35-.072.037-.139.269-.188.269,0,.1-.11.17-.135.3a.355.355,0,0,0-.135.242c-.127.063-.087.231-.215.3,0,.091-.108.2-.108.3a1.753,1.753,0,0,0-.161.565c-.1,0-.066.9-.027,1.047a1.822,1.822,0,0,0,.3.837.574.574,0,0,1,.108.215,1.421,1.421,0,0,1,.215.2c.078.1.592.222.592.256.259.037.4.188.619.188,0,0,.733.23.807.242,0,.106.35.071.35.161l.692.069a5.591,5.591,0,0,1,.707.227c0,.089.5.128.623.113a5.335,5.335,0,0,1,.783.049c.4,0,.773.108,1.177.108,0,.137.945-.027,1.022-.027a4.753,4.753,0,0,1,1.123-.213l.6-.1c.194-.032.263-.168.47-.23.264-.079.376-.183.61-.242,0,0,.5-.242.538-.242.073-.11.207-.142.283-.242a2.375,2.375,0,0,1,.349-.323,1.063,1.063,0,0,0,.256-.592c.11,0,.079-.551,0-.646-.148-.049-.2-.111-.359-.1-.236.018-.435.057-.691.072,0,.077-.565.112-.565.189-.164,0-.328.027-.457.027,0,.065-.294.081-.377.081,0,.085-.78.063-.78.134-.056,0-.323.042-.323.081-.1.005-.565.008-.565.081a6.023,6.023,0,0,0-.726.081c0,.057-1.749.346-1.888.383-.176.047-.245-.026-.422-.016-.153.01-.2-.071-.3-.071-.043-.088-.064-.02-.107-.108-.085,0-.108-.081-.175-.135-.11-.088-.111-.206-.2-.3-.055-.055-.134-.4-.242-.4a2.886,2.886,0,0,0-.349-.753c0-.133-.041-.169,0-.309a1.548,1.548,0,0,0,.055-.377c0-.045.051-.283.081-.283.009-.185.054-.42.054-.565.1,0,.1-.565.242-.565a.24.24,0,0,1,.108-.215.979.979,0,0,1,.229-.377c.1-.136.377-.191.533-.255.072-.03.5-.038.5-.068.107,0,.78-.077.78-.161.168,0,.373-.037.574-.045.169-.007.245-.063.368-.063,0-.161.768-.2.942-.215,0-.032.221-.081.269-.081,0-.065.365-.066.447-.07.3-.014.489-.145.764-.145s.451-.1.744-.119l.7-.036c.149-.008.232-.06.386-.06,0-.009.8-.107.888-.107,0,0,.367-.086.432-.109a2.1,2.1,0,0,1,.618-.106s.2-.089.244-.106a.609.609,0,0,1,.385-.017,1.353,1.353,0,0,0,.454-.052.745.745,0,0,1,.394-.055c.074.026.487-.013.487.041.148,0,.184.054.323.054a4.806,4.806,0,0,0,.592.135c0,.059.2.048.242.053l.262.182a.58.58,0,0,1,.222.338c.044.188.121.285.162.449.113.057.122.237.242.3a1.8,1.8,0,0,1,.189.619c.073,0,.09.565.161.565a1.727,1.727,0,0,0,.188.538,2.832,2.832,0,0,0,.1.538,1.522,1.522,0,0,1-.1.721.567.567,0,0,1-.188.328.454.454,0,0,1-.108.242.6.6,0,0,0-.162.269.683.683,0,0,0-.135.269c-.071,0-.083.35-.161.35-.018.07-.1.3-.162.3,0,.188-.161.4-.161.646a3.321,3.321,0,0,0-.233.556c.029.322-.1.439-.144.763a3.965,3.965,0,0,0-.081.4c-.032,0-.081.17-.081.215-.095,0,.014.484-.081.484a3.26,3.26,0,0,0-.108.43,2.64,2.64,0,0,1-.162.673c0,.052-.046.3-.081.3,0,.245.022.4.007.646-.01.166-.06.251-.06.448,0,.062-.03.306-.081.306a1.355,1.355,0,0,0-.007.412,2.169,2.169,0,0,1,.061.556c.1,0,.054.864.054.982,0,.326-.106.575-.128.928s-.25.515-.3.781c-.145.072-1.533.831-1.846.741-.073-.021-.032-.068-.118-.068,0-.058-.15-.082-.2-.1a.609.609,0,0,1-.287-.2c-.047,0-.592-.209-.592-.188-.056,0-.215-.054-.215-.108a.333.333,0,0,1-.189-.081c-.135-.134-.433-.2-.411-.451.013-.144.057-.233-.019-.383-.055-.048-.073-.3-.108-.3.016-.428.081-.754.081-1.141,0-.406-.027-.833-.027-1.2a9.319,9.319,0,0,0,.108-.969c-.045-.159-.05-.475-.16-.578-.125-.117-.2-.085-.378-.068a2.2,2.2,0,0,1-.511.215c0,.056-.305.1-.363.107-.157.022-.261.108-.39.108,0,.111-.673.039-.673.189a6.176,6.176,0,0,0-.682.143c-.288.029-.392.152-.681.152-.238,0-.461.085-.736.073-.243-.011-.415-.109-.654-.04-.262.076-.438-.033-.664-.033a5.639,5.639,0,0,0-.7.054,18.384,18.384,0,0,1-1.964-.189c0-.057-.672-.109-.672-.215-.344-.044-.529-.186-.915-.215a1.612,1.612,0,0,0-.552-.216c-.054,0-.229-.029-.229-.081-.087,0-.511-.12-.511-.215-.205,0-.407-.269-.619-.269a1.332,1.332,0,0,0-.43-.242,3.063,3.063,0,0,1-.377-.376c-.1,0-.255-.188-.323-.269-.068,0-.213-.133-.242-.188-.12-.1-.188-.168-.188-.3a1.671,1.671,0,0,1-.162-.269c-.034,0-.145-.219-.161-.269a4.725,4.725,0,0,1-.167-.657,3.5,3.5,0,0,0-.091-.359c-.013-.045-.092-.167-.094-.183-.006-.053-.036-.576-.052-.576,0-.316-.115-3.336-.081-3.336,0-.084.051-.619.135-.619,0-.042.135-.624.153-.834.008-.094.116-.727.224-.727,0-.217.237-.408.3-.645.2-.1.232-.425.4-.512,0-.145.242-.2.242-.35.136-.09.147-.262.269-.323,0-.091.161-.136.161-.242a2.187,2.187,0,0,0,.35-.376c.1-.052.125-.2.242-.243.033-.1.081-.124.162-.188a.3.3,0,0,1,.081-.161c.087-.087.433-.673.511-.673a.943.943,0,0,1,.3-.475c.077-.068.139-.251.26-.251.031-.062.081-.037.081-.081.093,0,.052-.066.134-.107,0-.1.249-.323.35-.323a.794.794,0,0,1,.288-.224c.2-.116,1-1.1,1.191-1.148.034-.068.178-.108.242-.108a1.007,1.007,0,0,1,.323-.189c.038-.075,1.059-.88,1.318-1.184A.5.5,0,0,0,8-101.975c.108-.035.144-.1.215-.188a.269.269,0,0,0,.175-.108,1.394,1.394,0,0,1,.2-.2c.093-.082.045-.089.108-.153.133-.133.351-.163.484-.3.07-.07.146-.269.269-.269a.75.75,0,0,1,.35-.269c.137-.206.434-.219.565-.35a.8.8,0,0,1,.3-.189c.043-.086.24-.139.35-.161,0-.058.269-.07.269-.135.059-.014.242-.066.242-.108a1.249,1.249,0,0,1,.484-.081c0-.071.379-.077.46-.075l.735.018a2.864,2.864,0,0,1,.409-.03,6.99,6.99,0,0,0,.808.168c.053,0,.3.046.3.081a1.618,1.618,0,0,1,.468.167,6.476,6.476,0,0,1,.967.82,1.686,1.686,0,0,1,.5.682c.119.06.226.484.269.484,0,.3.133.59.162.915.1,0,.242.543.242.619.045,0,.054.538.161.538a3.1,3.1,0,0,1,.035.454,4.418,4.418,0,0,0-.115.515c-.028,0-.108.172-.108.215-.131.1-.222.225-.342.335s-.788.219-.788.311a6.109,6.109,0,0,1-.69.092,1.32,1.32,0,0,1-.382-.078c-.106-.043-.133-.16-.219-.2,0-.128-.188-.169-.188-.3a.458.458,0,0,1-.162-.322c-.106,0-.12-.465-.269-.538a1.923,1.923,0,0,0-.242-.484c0-.173-.29-.413-.417-.565-.1-.121-.278-.1-.336-.215-.174-.035-.3-.1-.4.053-.091,0-.189.1-.282.121-.15.03-.236.162-.377.2a1.607,1.607,0,0,0-.255.134c-.095,0-.177.068-.3.108,0,.073-.287.125-.35.189a1.774,1.774,0,0,1-.4.242c-.091,0-.243.136-.3.215-.159.039-.248.161-.4.161a.628.628,0,0,1-.242.108c-.1.106-.3.25-.35.35a1.94,1.94,0,0,0-.807.646.951.951,0,0,0-.425.334c-.136.147-.27.236-.409.393-.093.1-.222.3-.35.3-.094.113-.431.35-.431.484-.109.085-.3.193-.3.323-.086.076-.271.323-.377.323-.031.062-.081.037-.081.081-.1.065-.067.14-.162.188,0,.146-.159.176-.229.269-.1.127-.363.281-.363.43-.035,0-.091.169-.135.2a.766.766,0,0,0-.242.39c-.119.089-.257.376-.4.376" transform="translate(0 104.569)" fill="000" fill-rule="evenodd"></path>
        <path id="path24" d="M156.426-92.234a.585.585,0,0,1-.269.3,1.761,1.761,0,0,0-.135.484c-.1.346-.217.682.108.942,0,.058.213.138.278.143.192.015.3.045.5.045a3.19,3.19,0,0,0,1-.054c.048,0,.269-.049.269-.081a3.027,3.027,0,0,1,.511-.054c.059,0,.646-.05.646-.108.218-.026.968-.162,1.076-.188.1-.208.54-.242.771-.242.267,0,.53-.076.8-.07.181,0,.552.1.552.312a.624.624,0,0,1,.215.3c.048.143.137.223.188.377a3.2,3.2,0,0,1,.256.565c.042.249.17.316.193.609.012.162.068.248.09.44.008,0,.116.566.135.646.075,0,.228.686.231.819a.433.433,0,0,1-.393.418c-.1.151-.278.156-.457.188,0,.028-.176.111-.229.121a3.989,3.989,0,0,1-.524.068,2.306,2.306,0,0,1-.626.134c-.353,0-.656.081-.975.081a4.945,4.945,0,0,1-.5-.017c-.168-.016-.323.044-.538.044a8.719,8.719,0,0,0-1.076.081c-.377.027-.55.134-.887.134a2.448,2.448,0,0,1-.646.152c-.147.012-.3.063-.444.063a5.816,5.816,0,0,0-.588.013,2.55,2.55,0,0,1-.314.067c-.159,0-.26.054-.376.054,0,.081-.242.04-.242.134a.49.49,0,0,0-.3.161c0,.088-.166.272-.242.323-.1.114-.054.24-.089.371-.094.354.02.479.224.732.1,0,.193.134.3.134a.63.63,0,0,0,.242.108c0,.088.457.215.592.242,0,.061.753.064.753.188.139,0,.23.054.4.054,0,.152.442-.006.511-.027.275-.015.532-.081.753-.081,0-.064.391-.124.484-.134,0-.1.387-.246.457-.35.09,0,.151-.081.256-.081.131,0,.223-.027.327-.018a.437.437,0,0,1,.3.12,1.072,1.072,0,0,1,.193.193c.114.1.443.629.525.7a2.475,2.475,0,0,1,.471.969c-.009,0,.117.577.122.661,0,.058-.036.254-.068.254,0,.124-.027.273-.027.431a2.156,2.156,0,0,0-.08.591,1.926,1.926,0,0,0-.135.619c-.134.066-.056.229-.188.3,0,.31-.706.756-.706.634a6,6,0,0,1-1.931.55.739.739,0,0,1-.43-.081c-.183-.018-.293-.057-.466-.072-.233-.021-.512-.2-.744-.2,0-.01-.484-.143-.538-.161a2.074,2.074,0,0,0-.646-.188c0-.076-.215-.03-.215-.108-.176-.029-.316-.078-.511-.107,0-.157-.7-.063-.7-.242-.062,0-.538-.182-.538-.242a.576.576,0,0,1-.323-.216c-.141,0-.208-.215-.35-.215a.621.621,0,0,0-.3-.188.6.6,0,0,0-.3-.215c-.085-.1-.135-.132-.135-.269-.016,0-.055-.1-.108-.134,0-.01-.236-.095-.269-.162-.068-.056-.161-.095-.161-.188-.087-.044-.021-.065-.108-.108,0-.148-.242-.2-.242-.35a.293.293,0,0,1-.121-.2c-.03-.148-.04.026-.04-.175a.691.691,0,0,1-.081-.188c-.127-.066-.176-.511-.242-.511,0-.211-.162-.439-.162-.646-.1,0,0-1.022-.135-1.022,0-.147-.054-.195-.054-.377a2.745,2.745,0,0,1-.027-.666,6.053,6.053,0,0,0,.081-.733c0-.188.027-.4.027-.551,0-.113.081-.182.081-.309a6.337,6.337,0,0,1,.34-1.381c.053-.265.225-.44.225-.718a.369.369,0,0,0,.135-.242.4.4,0,0,0,.107-.215c.053-.026.1-.188.135-.188,0-.047.118-.3.162-.3.07-.278.222-.443.269-.726.075,0,.069-.619.161-.619a.825.825,0,0,0-.349-.834c0-.04-.047-.161-.081-.161,0-.158-.14-.119-.189-.24s-.242-.241-.242-.352c-.059,0-.027-.17-.027-.215a.941.941,0,0,1-.242-.287,2.15,2.15,0,0,1-.107-.942,4.43,4.43,0,0,1,.009-.867,3.094,3.094,0,0,0,.045-.515,1.7,1.7,0,0,0,.162-.35c.114-.076.214-.376.376-.376a.543.543,0,0,1,.188-.162c0-.088.108-.134.169-.2a1.5,1.5,0,0,1,.558-.4,2.49,2.49,0,0,1,.706-.035c.349-.017.54-.263.855-.368a3.684,3.684,0,0,1,.915-.269c0-.044.279-.108.341-.108.213,0,.27,0,.507.02.153.011.233-.069.372-.083.195-.019,1.885-.421,1.928-.421,0-.107.714-.2.834-.242a.741.741,0,0,1,.35-.081c.13,0,.236-.054.363-.054a3.553,3.553,0,0,0,.686-.175,1.9,1.9,0,0,1,.35-.078,2.7,2.7,0,0,0,.556-.1,2.569,2.569,0,0,0,.332-.108c.3,0,.525-.081.807-.081a6.694,6.694,0,0,0,1-.069c.1-.01.779-.068.779.069.166.041.207.173.377.215a1.746,1.746,0,0,0,.323.376.755.755,0,0,0,.269.377c0,.044.12.242.161.242.014.057.1.242.135.242a4.083,4.083,0,0,1,.135.565c.121,0,.2.484.3.484a3.375,3.375,0,0,1,.135.511c.037,0,.151.253.162.3.122.063.1.245.094.363s.017.18-.094.256c-.044.13-.108.054-.108.2,0,.218-.055.261-.243.381a.932.932,0,0,1-.43.175c0,.079-.449.121-.551.128-.178.013-.286.114-.484.114a7.632,7.632,0,0,0-.794.134c-.179,0-.346.135-.556.135s-.324.08-.48.08c-.234,0-.509.081-.74.081s-.35.081-.556.081c-.243,0-.344.108-.547.108-.157,0-.265.108-.4.108,0,.14-.5.149-.624.156-.085,0-.533.085-.533.14-.207,0-.288.108-.485.108,0,.084-.3.061-.3.134-.063,0-.377,0-.377.054-.083,0-.121.054-.215.054,0,.085-.428.1-.538.107a2.378,2.378,0,0,1-.511.323" transform="translate(-112.806 100.425)" fill="000" fill-rule="evenodd"></path>
        <path id="path26" d="M213.5-83.908c-.053.194-.245.226-.315.386a1.184,1.184,0,0,0-.064.607c.031.213.206.273.3.46.091.03.484.169.484.215.069,0,.511.072.511.134.169,0,.4.108.538.108,0,.16,1.614.153,1.614.054.033,0,.2.036.269.04.044,0,.242.047.242-.013.157,0,.013-.027.135-.027,0-.123.537-.134.646-.134,0-.111.419-.058.485-.189.09,0,.239-.166.3-.242.127,0,.168-.189.3-.189a.5.5,0,0,1,.269-.161s.249-.084.3-.093c.286-.052.34.2.587.281a.583.583,0,0,0,.1.243,1.853,1.853,0,0,0,.277.275c.076.075.077.1.077.208,0,.15.064.112.107.242.038.114.142.21.149.308s.227.343.227.5c.173.087.215.909.215,1.077a1.645,1.645,0,0,1-.067.565c-.021.172-.055.36-.067.565a1.287,1.287,0,0,0-.1.278c-.042.214-.153.531-.386.61-.093.275-.354.356-.63.414-.08.017-.581.152-.581.231a1.918,1.918,0,0,1-.429.11c-.189.01-1.552.209-1.71.227-.193.021-1.015.222-1.117.094-.091,0-.044-.054-.135-.054,0-.052-.268-.01-.323-.007a.563.563,0,0,1-.366-.033.375.375,0,0,0-.346-.02.719.719,0,0,1-.607-.209c-.089,0-.156-.058-.287-.072s-.259-.055-.386-.076a.82.82,0,0,1-.269-.148c-.1-.005-.565-.008-.565-.081-.11-.015-.592-.121-.592-.188-.143-.033-.371-.043-.431-.161-.116,0-.212-.231-.35-.269-.032-.131-.134-.134-.134-.269-.032,0-.081-.17-.081-.215-.011,0-.188-.223-.242-.269,0-.118-.108-.2-.108-.323-.129,0-.221-.538-.323-.538a.791.791,0,0,0-.188-.323c-.082-.082-.35-.14-.35-.3-.061-.046-.107-.055-.107-.134-.106-.071-.04-.114-.135-.162a.442.442,0,0,0-.135-.215,2.456,2.456,0,0,0-.215-.7c0-.078-.1-.834-.108-.834a1.875,1.875,0,0,1-.033-.723,8.306,8.306,0,0,0,.1-.892c.018-.476.216-.9.255-1.372.011-.13.071-.646.162-.646,0-.109.079-.7.161-.7,0-.11.027-.282.027-.43.027,0,.081-.223.081-.269a3.5,3.5,0,0,0,.135-.681c0-.11.05-.8.134-.8a4.149,4.149,0,0,1,.215-.646c0-.232.215-.459.3-.7.045,0,.1-.306.188-.35,0-.112.086-.2.108-.323.063,0,.115-.26.188-.3,0-.1.122-.233.161-.35a2.5,2.5,0,0,0,.215-.592,1.76,1.76,0,0,0,.161-.4,2.82,2.82,0,0,0,.243-.753,7.292,7.292,0,0,0,.069-.992,2.368,2.368,0,0,1,.025-.529c.018-.091.067-.062.067-.148a1.526,1.526,0,0,0,.162-.189c.087-.087.207-.125.3-.229a.784.784,0,0,1,.349-.229,7.177,7.177,0,0,0,.942-.431c.174,0-.021-.027.189-.027,0-.083.095.005.134,0,0-.055.269-.041.269-.134.067,0,.4-.057.4-.108a8.724,8.724,0,0,0,.9-.121,1.681,1.681,0,0,1,.444-.049,2.148,2.148,0,0,0,.511-.1c0-.079.727-.015.727-.135.118,0,.78-.035.78-.134a5.03,5.03,0,0,0,.861-.161c.049-.016.188-.078.188-.108.083-.01.4-.053.4-.108.114,0,.807.04.807-.108.124,0,.181-.054.35-.054a2.245,2.245,0,0,1,.35-.081c.136,0,.221-.054.39-.054a2.4,2.4,0,0,0,.573-.085,6.121,6.121,0,0,1,1.243.058c.223,0,.394.161.646.161,0,.066.054-.012.054.054.121,0,.174.078.265.154a5.048,5.048,0,0,0,.489.438,1.366,1.366,0,0,0,.484.861.56.56,0,0,0,.135.242.448.448,0,0,1,.081.189.213.213,0,0,1,.108.161,3.1,3.1,0,0,1,.253.5A2.439,2.439,0,0,1,225.8-93.3a.706.706,0,0,1-.294.113,3.929,3.929,0,0,1-1,.062c-.172-.022-1.378.229-1.466.229-.118,0-.27.054-.39.054,0,.029-.177.081-.215.081,0,.068-.326.054-.4.054,0-.045-.263.054-.336.054-.664,0-1.274.134-1.924.134a9.881,9.881,0,0,0-1.695.242c-.062,0-.3.085-.3.135-.112,0-.173.061-.314.09-.123.025-.192.179-.3.179a.51.51,0,0,1-.3.188c-.039.077-.1.065-.148.134-.064.085-.152.135-.229.242l-.269.215-.113.355a.916.916,0,0,1-.263.479.658.658,0,0,1-.188.282c-.175.132-.135.318-.135.471.164.081.191.228.4.25a3.1,3.1,0,0,0,.436-.035c0-.054.807-.034.807-.135a6.593,6.593,0,0,0,1.4-.269,2.984,2.984,0,0,0,.7-.162c0-.081.457-.141.457-.215.173-.016.339,0,.431-.134a.564.564,0,0,0,.269-.161c.076-.026.485-.121.485-.189.084,0,.23-.1.356-.111s.178.057.29.057a.922.922,0,0,0,.242.135c.044.088.134.083.225.108.138.038.063.026.166.108s.1.137.188.215c.061.052.175.166.175.242a1.152,1.152,0,0,1,.35.673c.136,0,.225.538.3.538a.308.308,0,0,0,.135.242.864.864,0,0,0,.107.242c0,.13.054.252.054.376v.431c-.119,0,.052.834-.054.834a.676.676,0,0,1-.269.484c0,.182-.4.3-.538.3,0,.075-.215.03-.215.108a2.492,2.492,0,0,1-.5.121c-.29.019-.4.181-.686.229a3.653,3.653,0,0,1-.376.081c0,.083-.242.079-.242.134-.224.018-.866.134-.915.134a15.336,15.336,0,0,1-2.314.323c0,.045-.214.081-.269.081,0,0-.915.141-.915.027-.048,0-.075.057-.157.072l-.31.054a2.786,2.786,0,0,1-.664.009c0,.1-.7.083-.7.189-.132,0-.217.054-.349.054h-.323c0,.064-.131.145-.188.161" transform="translate(-157.184 99.31)" fill="000" fill-rule="evenodd"></path>
        <path id="path28" d="M303.122-94.258a.7.7,0,0,1-.269.189.679.679,0,0,1-.35.215.349.349,0,0,1-.215.135.24.24,0,0,1-.215.108c0,.038-.27.148-.323.161a.945.945,0,0,1-.538.29,2.158,2.158,0,0,1-.646.168c0,.091-.382.083-.452.085a.734.734,0,0,1-.49-.111c-.053-.078-.08-.061-.08-.134-.106-.071-.04-.114-.135-.162-.018-.1-.065-.538-.135-.538a2.1,2.1,0,0,0-.161-.7c0-.064-.019-.376-.054-.376.007-.121.014-.242.021-.363s-.048-.184-.045-.327c0-.2.016-.437.251-.48a3.278,3.278,0,0,1,.608-.041,1.755,1.755,0,0,1,.376,0c0,.064.3.044.3.108.2,0,.322.027.511.027.125,0,.231.054.35.054.156,0,.373.043.565.054,0,0,.268.088.31.094.2.029.348.148.525.148,0,.134.549.121.666.3.05.077.152.477.006.477a1.15,1.15,0,0,1-.377.619m21.255-4.116c.159,0,.322,1.291.242,1.291,0,.049.008.552,0,.727a1.1,1.1,0,0,1-.158.538c-.054.044-.323.251-.323.242a1.949,1.949,0,0,0-.457.243c-.244,0-.483.161-.753.161,0,.01-.731.082-.824.113a5.855,5.855,0,0,1-1.276.237c0,.1-.673.04-.673.135-.277,0-.537.155-.874.175-.118.007-.713.1-.713.175-.168.012-.35.054-.484.054,0,.057-.295.088-.376.094-.313.022-.46.12-.807.175a2.115,2.115,0,0,1-.646.161c0,.121-.784.18-.934.2-.132.018-.233.123-.358.123,0,.062-.349.081-.43.081,0,.045-.62.117-.62.215-.053,0-.269.038-.269.081-.109,0-.156.134-.269.134-.063.127-.243.19-.243.323a.628.628,0,0,0-.215.3.66.66,0,0,1-.134.215c-.039.116-.076.085-.107.215a.289.289,0,0,0-.135.189c-.076.051-.242.235-.242.323-.076.038-.132.3-.161.3l.027.3.242.081a.462.462,0,0,0,.323.215c0,.123.775,0,.9,0a4.99,4.99,0,0,0,1.2-.117,2.613,2.613,0,0,1,.589-.046c0-.068.325-.054.4-.054,0-.033.834-.048.834-.162.085-.013.43-.044.43-.108a2,2,0,0,1,.458-.134,2.864,2.864,0,0,1,.552-.255.408.408,0,0,0,.283-.148.5.5,0,0,0,.215-.107.748.748,0,0,1,.3-.162c.055-.083.323-.183.323-.242a1.613,1.613,0,0,1,.667.194c.124.053.382.215.382.371.085,0,.1.323.188.323.084.251.187.456.243.673a2.562,2.562,0,0,1,.2.565c.01.057.2.538.2.538,0,.094.111,1.05,0,1.05,0,.08-.1.376-.162.376a.619.619,0,0,1-.108.242.633.633,0,0,1-.161.359c-.061.08-.431.24-.431.287a.748.748,0,0,0-.242.134c-.127,0-.209.081-.337.081-.043,0-.337.068-.337.107a4.892,4.892,0,0,0-.576.05c-.449.052-1.727.288-1.945.28-.238-.008-4.461.638-4.79.638-.371,0-.571.083-.969.1a2.191,2.191,0,0,0-.624.23c-.093.031-.2.034-.243.125-.095,0-.066.081-.161.081a3.518,3.518,0,0,1-.269.323,3.361,3.361,0,0,0,0,.43c.054,0,.2.314.269.363a1.27,1.27,0,0,1,.242.255.531.531,0,0,1,.35.215.6.6,0,0,1,.3.215c.117,0,.144.108.269.108a2.923,2.923,0,0,0,.809.141,3.469,3.469,0,0,0,1.218-.171c.07-.022.449-.052.449-.1.055-.014.3-.085.3-.135.167-.04.189-.107.376-.134,0-.068.242-.04.242-.107.049,0,.243-.044.243-.081.193-.021.265-.014.376-.161.17,0,.329-.188.511-.188a2.958,2.958,0,0,1,.511-.188,3.754,3.754,0,0,1,.753-.153c.2-.017.373.219.525.341.091.072.13.221.229.269.02.081.106.4.161.4.056.252.189.387.189.592.117,0,.08.994.08,1.156.092,0,0,.761,0,.807a5.193,5.193,0,0,0-.089.592c-.049.147-.136.4-.261.457,0,.145-.332.356-.43.471a.6.6,0,0,1-.3.175c0,.021-.154.08-.188.08-.049.1-.27.189-.377.215-.07.139-.441.242-.565.242,0,.087-.515.137-.592.3a2.551,2.551,0,0,0-.52.189,1.863,1.863,0,0,1-.663.081c0,.071-.215,0-.215.081a7.06,7.06,0,0,1-1.1-.058c-.217-.009-.434-.015-.651-.025-.2-.009-.39-.078-.586-.078-.073,0-.457.01-.457-.054a4.4,4.4,0,0,1-.632-.148c-.116-.016-.687-.084-.687-.175a2.73,2.73,0,0,1-.3-.081.735.735,0,0,0-.242-.134c-.054-.11-.4-.133-.4-.216a1.02,1.02,0,0,1-.3-.162.586.586,0,0,1-.35-.215c-.135,0-.184-.216-.323-.216-.105-.126-.315-.224-.376-.35-.258,0-.373-.437-.53-.574-.125-.11-.182-.306-.3-.368,0-.081-.056-.087-.081-.188-.1-.051-.035-.139-.134-.188-.029-.114-.135-.181-.135-.3a.527.527,0,0,1-.135-.242c-.109,0-.215-.818-.215-.928a6.435,6.435,0,0,0-.128-.807,1.516,1.516,0,0,1-.007-.552,2.473,2.473,0,0,1,.005-.767,3.267,3.267,0,0,0,.022-.605c.035,0,.054-.313.054-.377a2.789,2.789,0,0,0,.149-.686c.016-.27.174-.5.174-.74-.018,0,.216-.657.216-.7.106,0,.119-.538.188-.538,0-.05.048-.3.081-.3,0-.118.006-.3.107-.35.026-.127.081-.159.081-.269a.63.63,0,0,0,.108-.242c.1,0,.154-.484.242-.484a3.267,3.267,0,0,1,.189-.592c.03-.092.107-.18.107-.269.062,0,.12-.558.134-.646-.1,0-.143-.007-.188.162-.126.03-.214.134-.323.134a.791.791,0,0,1-.269.121c-.131.022-2.4,1.821-2.462,1.87-.105.084-.147.135-.282.135,0,.064-.389.188-.458.188,0,.076-.269.029-.269.108l-.269.027a.3.3,0,0,1-.127.113.736.736,0,0,0-.222.21,1.577,1.577,0,0,0-.3.135c-.091,0-.592.121-.592.188-.06.009-.377.062-.377.108a1.679,1.679,0,0,1-.323.108c0,.08-.4.128-.4.215a9.444,9.444,0,0,1-1.129.257c-.141.018-.154.068-.243.174-.061,0-.036.1-.108.134a2.388,2.388,0,0,0-.144.439c-.026.338-.083.6-.125.933-.1,0-.135.5-.135.619-.032,0-.024,1.049-.135,1.049,0,.106-.057.7-.161.7,0,.114-.033,1.13-.054,1.13a5.08,5.08,0,0,0-.054.968.956.956,0,0,1-.016.412,1.838,1.838,0,0,0-.011.386c0,.055-.162,1.142-.154,1.278a2.524,2.524,0,0,1-.034.291c-.018,0-.092.141-.135.175a1.277,1.277,0,0,0-.269.229c-.088,0-.179.107-.269.107,0,.071-.239.081-.3.081a3.31,3.31,0,0,1-.948.108,1.075,1.075,0,0,1-.371-.108.445.445,0,0,0-.215-.135c-.045-.087-.175-.12-.243-.188s-.233-.063-.3-.189a1.179,1.179,0,0,1-.565-.565c-.1-.048-.085-.656-.215-.7-.018-.135-.036-.269-.054-.4-.1,0,.047-1.15.027-1.211a5.525,5.525,0,0,1,.08-1.043,3.4,3.4,0,0,1-.045-.338c.013-.14.072-.2.072-.3,0-.133-.05-1.224.081-1.224,0-.132.054-.206.054-.377a6.878,6.878,0,0,0,.054-1.1c-.054-.033-.43-.21-.43-.215-.111,0-.2-.162-.323-.162-.084-.125-.239-.179-.337-.3-.078-.094-.309-.193-.309-.323-.029,0-.146-.237-.188-.3-.11,0-.236-.168-.269-.269a.714.714,0,0,1-.243-.511,4.639,4.639,0,0,1-.161-.484c-.038,0,.35-2.043.35-2.125.07,0,.1-.431.188-.431,0-.193.4-.428.565-.484a.873.873,0,0,1,.45-.04c.081.009.384-.045.384-.095a1.949,1.949,0,0,0,.431-.108.97.97,0,0,1,.229-.229c.093-.056.033-.078.121-.121.048-.143.141-.306.2-.468a2.289,2.289,0,0,0,.019-.7c.017-.474.044-.946.073-1.418.012,0-.224-.287-.242-.323-.075-.011-.35-.059-.35-.108a.792.792,0,0,0-.4.036,1.6,1.6,0,0,1-.546.06c-.079,0-.43,0-.43.065-.126,0-.19.081-.31.081-.184,0-.372.242-.579.242,0,.038-.216.162-.269.162a.452.452,0,0,1-.35.188c0,.093-.59.151-.726.162,0,.08-.792-.081-.848-.081-.184,0-.4-.161-.552-.161a2.733,2.733,0,0,1-.43-.43c-.211-.018-.315-.045-.451.063a.513.513,0,0,0-.122.409,1.453,1.453,0,0,1-.111.425c-.094.321.262.437.248.718-.016.314.031.54.013.857a1.556,1.556,0,0,1-.035.327c-.054.193.027.4-.027.592a5.615,5.615,0,0,1-.015,1.241,1.7,1.7,0,0,0,.015.4c0,.223.008.439.011.661a5.15,5.15,0,0,1-.095.543,6,6,0,0,0-.024.626c0,.075.048.538,0,.538,0,.213-.054.39-.054.578a6.725,6.725,0,0,0-.09.7,7.2,7.2,0,0,1-.054,1.166,6.3,6.3,0,0,0-.065,1.063c.009.13.067.659.154.659,0,.335.054.809.054,1.144,0,.108.054.194.054.3,0,.172,0,.417-.006.631a5.767,5.767,0,0,1-.129,1.05c0,.089-.1.646-.161.646a4.46,4.46,0,0,1-.188.485c0,.049-.043.242-.081.242,0,.12-.188.221-.188.35a1.725,1.725,0,0,1-.35.215c-.123,0-.215.088-.365.089l-1.4-.008a2.683,2.683,0,0,1-.74-.135A2.314,2.314,0,0,0,285-79.1c-.141-.119-.225-.3-.363-.4a.356.356,0,0,1-.135-.229c-.1,0-.059-.4-.161-.4a1.174,1.174,0,0,0-.188-.43c-.013-.078-.059-.431-.108-.431v-.78c-.073,0-.091-.592-.161-.592,0-.068-.126-.538-.188-.538a2.19,2.19,0,0,0-.162-.4c-.039-.153-.133-.24-.188-.4-.08-.053-.215-.206-.215-.3-.118-.059-.129-.43-.242-.43,0-.131-.179-.2-.215-.35-.114-.085-.131-.239-.242-.3a.867.867,0,0,0-.215-.323c0-.149-.122-.166-.215-.283-.033-.042-.212-.282-.215-.282,0-.04-.047-.162-.081-.162a.457.457,0,0,0-.161-.282c-.17-.141-.139-.283-.242-.451-.07-.114-.188-.263-.188-.37-.058,0-.05-.226-.135-.269,0-.157-.269-.222-.269-.377a2.12,2.12,0,0,1-.376-.4c-.079,0-.081-.058-.15-.106a.266.266,0,0,0-.246-.047c-.046.007-.142.015-.142.072-.119,0-.084.081-.188.081,0,.072-.081.048-.081.134-.089.045-.054.123-.054.215,0,.061-.022.458-.081.458a8.111,8.111,0,0,1-.242,1.049c0,.256-.188.606-.188.888a1.349,1.349,0,0,0-.161.4c-.115,0-.024.7-.135.7a3.328,3.328,0,0,1,.027.673c0,.428-.081.644-.081,1.042v.652a1.965,1.965,0,0,1-.162.592c-.008.074-.025.512-.081.512,0,.124-.081.166-.081.3a1.629,1.629,0,0,0-.161.431c-.233.111-.225.5-.607.407-.086-.022-.926-.111-1.068-.111-.185,0-.356-.027-.531-.027,0-.059-.689-.032-.78-.215-.132-.029-.219-.018-.3-.134-.078,0-.093-.091-.162-.148-.173-.145-.166-.367-.2-.6-.03-.208-.159-.306-.166-.523a2.236,2.236,0,0,1,.035-.41,2.078,2.078,0,0,0-.058-.557,1.389,1.389,0,0,1,.079-.411,1.323,1.323,0,0,0-.028-.417c-.007-.105.1-.727.067-.727,0-.074,0-.511.054-.511,0-.06.024-.242.081-.242a8.027,8.027,0,0,0,.171-1.193c.041-.534.26-.782.26-1.336.1,0,.056-.646.162-.646,0-.241.161-.5.161-.754a7.767,7.767,0,0,0,.215-.915,4.644,4.644,0,0,1,.165-.994c.051-.218.1-.437.154-.653a2.08,2.08,0,0,0,.037-.661,2.508,2.508,0,0,1,.051-.663,4.538,4.538,0,0,0,.039-.592c.02-.208.012-.419.012-.629a4.013,4.013,0,0,0,.059-.436c-.057-.419-.084-.805-.112-1.21-.045,0-.161-.362-.161-.43a1.6,1.6,0,0,1-.027-.915c0-.1.059-.191.072-.332a1.73,1.73,0,0,0,0-.354c-.021-.361.094-.65.094-1,0-.214.107-.443.107-.686-.016,0,.323-.553.323-.619.09,0,.138-.161.242-.161.059-.074.3-.2.3-.242.111,0,.166-.065.3-.108a1.014,1.014,0,0,1,.323-.108c0-.177.838-.028.975-.02a1.649,1.649,0,0,1,.5.1c.182.06.294.221.484.269,0,.105.431.141.431.215a.339.339,0,0,1,.269.134c.1,0,.242.275.242.35.193,0,.15.86.155,1.016,0,.064,0,.384.06.384,0,.28.005.555.027.834.007.092.057.888.054.888a2.714,2.714,0,0,0,0,.888,1.208,1.208,0,0,1,.161.457c.079,0,.008.26,0,.317-.013.109.187.223.187.328a.462.462,0,0,1,.161.35,1.427,1.427,0,0,1,.162.269c.121.06.121.2.242.3,0,.115.169.237.216.377.1.288.565.466.565.753a.4.4,0,0,1,.108.188c.13.065.232.292.349.39a.586.586,0,0,1,.188.283c.106.1.43.314.43.457a.581.581,0,0,1,.215.323c.093.08.4.336.4.457.2.133.264.531.564.54.119,0,.147.021.216-.083.066,0-.012-.054.054-.054.043-.184.121-.336.148-.471.012-.058.1-.2.04-.2-.011-.2,0-.4,0-.565a5.182,5.182,0,0,0,.135-1c.108,0,0-.341-.013-.4a1.219,1.219,0,0,1,.013-.432c.015,0,.08-1.069.08-1.184a4.012,4.012,0,0,1,.081-.969,3.813,3.813,0,0,1,.108-.915c0-.127.032-.645.135-.645.023-.187.09-.274,0-.453a1.378,1.378,0,0,1,.028-.623c-.023-.419.027-.693.027-1.1.09,0-.036-.43.054-.43a.77.77,0,0,1,.229-.484,1.623,1.623,0,0,1,.713-.431c.059,0,.4-.052.4,0,.111,0,.345.045.4.162a1.066,1.066,0,0,1,.78.39c.056.065.161.119.161.2.052,0,.047.077.108.108,0,.1.117.154.188.215a.269.269,0,0,0,.135.188c0,.035.059.188.081.188,0,.135.054.29.054.417,0,.159.222.536.448.509.154-.019.173-.147.279-.226a.5.5,0,0,1,.135-.215c0-.118.121-.236.2-.323.12-.132.264-.375.435-.434a10.794,10.794,0,0,0,1.141-.292c.025-.1.174-.35.3-.35.05-.1.7-.237.7-.242a3.66,3.66,0,0,0,.942-.215,19.214,19.214,0,0,1,3.605-.3c.14,0,1.663,0,1.813.011.189.009,2.276.095,2.276.124.08,0,.136.057.22.048.124-.013,1.147.167,1.334.167.3,0,.434.085.741.094a9.788,9.788,0,0,1,1.284.255c.1,0,.233.122.35.161,0,.012.473.091.538.108,0,.052.4.215.457.215,0,.073.269.166.269.3.1.051.323.234.323.35.212.1.2.432.4.565,0,.1.081.069.081.188.053,0,.008.071.081.108a.6.6,0,0,0,.215.376c0,.091.081.108.107.216.059,0,.062.159.072.206a3.412,3.412,0,0,1,.117.467c.105,0,.188.39.188.484,0,.268.108.538.108.78,0,.13.054.253.054.376v.511c-.087,0-.086.722-.132.858-.082.241-.24.917.224.725.084-.035.231-.15.231-.238.1-.092.323-.248.323-.377.113-.057.1-.236.215-.3,0-.125.108-.152.108-.269.119-.079.119-.262.242-.323,0-.053.123-.269.161-.269a1.382,1.382,0,0,1,.215-.484,2.1,2.1,0,0,1,.161-.538c.04-.285.195-.389.242-.673.05,0,.081-.161.081-.215.089-.045.076-.13.162-.2.1-.087.09-.138.107-.269s.107-.259.107-.363c.109-.055.087-.168.162-.242.091-.091.115-.191.242-.3,0-.05.036-.189.081-.189,0-.249.354-.4.538-.457a2.449,2.449,0,0,1,.673-.134,5.608,5.608,0,0,1,.7-.162,3.992,3.992,0,0,0,.915-.107c.24,0,1.273-.3,1.318-.3,0-.082,3.777-1,3.928-1,0-.074,1.614-.423,1.614-.458.074-.006.457-.031.457-.108.131,0,.192-.08.323-.08,0,.006.915-.214.915-.135.082,0,.323.005.323.081.127,0,.2.162.323.162.12.137.24.269.4.269,0,.023.1.047.134.094a6.356,6.356,0,0,1,.441,1.1c.017.118.216.659.232.721" transform="translate(-205.961 101.749)" fill="000" fill-rule="evenodd"></path>
        <path id="path30" d="M498.987-83.263c.1,0,.608.081.74.081.05,0,.2-.095.2,0a1.4,1.4,0,0,0,.431.135c.164,0,.26.073.386.06a.493.493,0,0,1,.355.027.368.368,0,0,1,.147.287.527.527,0,0,1-.054.271c-.048.04-2.2.323-2.287.323a16.27,16.27,0,0,1-2.588.279c-.071.007-.291-.005-.291-.064-.164-.011-.5.041-.538-.081-.072,0-.048-.081-.134-.081,0-.058-.134-.054-.18-.063a1.033,1.033,0,0,1-.3-.179c-.179-.043-.67-.322-.607-.559a.746.746,0,0,1,.3-.387.711.711,0,0,1,.545-.076c0-.082.4.035.457.044s.216,0,.216.063c.105-.011,1.623-.107,1.99-.107,0,.1.952-.1,1.211.027m-29.918-9.175c.2.054.2.4.227.559a8.714,8.714,0,0,0,.122,1.028,5.226,5.226,0,0,1-.054.969c0,.286-.081.489-.081.726-.107.054-.027.134-.135.189,0,.077-.179.262-.243.309a.655.655,0,0,1-.576.12c-.208-.034-.413.11-.623.135-.1.012-.5,0-.5-.107-.287-.231-.094-.516-.027-.78.035,0,.081-.181.081-.215.08,0,.092-.269.161-.269a.791.791,0,0,1,.242-.43c0-.143.135-.272.135-.431.091,0,.085-.352.188-.4,0-.117.149-.2.188-.323.05-.149.1-.187.135-.323a3.2,3.2,0,0,0,.242-.457c.083,0,0-.162.081-.162,0-.166.312-.257.431-.135m1.587-5.274c.128,0,.2.219.3.269a9.851,9.851,0,0,0,.745,1.022c.076.068.2.206.2.3a.728.728,0,0,1,.216.35c.082.041.113.16.134.256.033.149.215.231.215.363a.431.431,0,0,1,.134.3c.049,0,.108.183.108.242a5.351,5.351,0,0,1,.148,1.184,6.967,6.967,0,0,1,.175.726c.1,0,.111.619.188.619a5.221,5.221,0,0,0,.188.754c0,.117.06.7.135.7.006.054.041.376.08.376,0,.132.054.175.054.283,0,.17.031.619.315.654.158.019.3-.273.3-.372.039,0,.094-.161.108-.215.145-.074.128-.334.27-.4.053-.165.165-.252.215-.4a.562.562,0,0,1,.215-.323.443.443,0,0,1,.162-.242c.026-.1.081-.108.081-.188.041-.028.161-.145.161-.189.169,0,.208-.3.377-.3.045-.092.372-.363.413-.475s.034-.186.152-.224a.839.839,0,0,1,.242-.161c0-.041.245-.2.3-.215.13-.043.269-.069.269-.134a1.966,1.966,0,0,0,.618-.431c.138,0,.187-.215.323-.215.04-.061.323-.185.323-.215.136-.033.151-.079.3-.107.038-.078.323-.168.323-.216.04,0,.161-.046.161-.08a.739.739,0,0,0,.377-.215c.2,0,.445-.252.659-.283a5.944,5.944,0,0,0,.579-.2,1.634,1.634,0,0,1,.377-.135c0-.013.452-.1.529-.116a2.275,2.275,0,0,0,.3-.1c.056-.019.242-.108.242-.134.408-.068,1.269-.323,1.318-.323,0-.031.286-.054.35-.054,0-.032.221-.081.269-.081a2.352,2.352,0,0,1,.511-.053c0-.121,1.3-.2,1.407-.2.132,0,.224.008.329.008.149,0,.236-.054.417-.054a1.283,1.283,0,0,1,.532.108l.3.162c.035.071.161.054.161.108.171.043.292.221.395.368s.231.178.35.314a1.716,1.716,0,0,0,.278.314c0,.1.054.043.054.161,0,.135.143.2.242.282.169.141.161.432.35.525a1.148,1.148,0,0,1,.108.457c.082,0,.168.382.188.457.092,0,.129.61.147.741a5.273,5.273,0,0,1-.012.766c0,.141.032.888-.081.888,0,.056-.013.323-.054.323,0,.121-.081.187-.081.3-.058,0-.171.634-.269.7,0,.08-.047.089-.108.134-.064.2-.208.274-.269.476-.036.121-.074.094-.108.224-.074.065-.215.141-.215.242a.414.414,0,0,0-.162.242c-.151.075-.207.269-.376.269a6.5,6.5,0,0,1-.888.053c0,.087-.353-.041-.4-.053-.06-.118-.115-.081-.2-.081-.109,0-.659.031-.659-.108-.12,0-.187-.154-.323-.188a.393.393,0,0,0-.269-.135,1.121,1.121,0,0,0-.2-.144.892.892,0,0,1-.185-.11.245.245,0,0,1-.075-.122.2.2,0,0,1-.13-.086,1.114,1.114,0,0,1-.124-.7c.007-.042.038-.49.038-.663.039,0,0-.269-.027-.269a3.6,3.6,0,0,1,.166-.9,1,1,0,0,0,.076-.511c0-.118-.079-.389-.188-.444,0-.1-.207-.188-.3-.188a2.176,2.176,0,0,0-.538.027c0,.03-.225.113-.282.121a3.187,3.187,0,0,1-.417.068.8.8,0,0,1-.242.108c0,.045-.3.082-.377.108-.166.055-.207.2-.376.242,0,.093-.269.08-.269.134-.152.03-.183.1-.323.134-.127.158-.242.189-.377.35a1.055,1.055,0,0,0-.431.269c0,.12-.2.2-.269.283-.114.134-.235.165-.35.31a.825.825,0,0,0-.376.376c-.123.082-.144.2-.269.3,0,.117-.188.176-.188.3a.872.872,0,0,0-.3.377.679.679,0,0,0-.242.323.626.626,0,0,0-.216.35c-.106.085-.138.19-.242.242,0,.094-.081.135-.081.215a1.082,1.082,0,0,0-.229.309,1.478,1.478,0,0,1-.175.444c0,.2-.178.37-.2.655-.012.181.03.356.016.543,0,.044-.065.2.021.2,0,.155.191.207.269.323.171.043.211.154.362.224a.372.372,0,0,1,.163.126c.059.078.13.047.174.134.127,0,.186.215.3.215.061.119.239.125.336.242s.66.384.66.511c.091,0,.243.136.3.215.092,0,.034.108.161.108.041,0,.188.018.188.053a.355.355,0,0,1,.242.162c.109,0,.2.158.323.188,0,.113.484.161.484.242.159,0,.307.161.458.161,0,.088.484.124.484.215a2.425,2.425,0,0,1,.646.1,1.9,1.9,0,0,0,.627.144,3.125,3.125,0,0,0,.745-.027,3.521,3.521,0,0,0,.861-.054c.148,0,.21-.054.35-.054,0-.074.366-.075.458-.081a1.192,1.192,0,0,1,.43-.215c.031-.062.108-.056.108-.108.128,0,.163-.1.242-.188a1,1,0,0,0,.417-.242c.087-.115.267-.3.418-.3a.446.446,0,0,1,.269-.134c0-.079.267-.048.323-.027,0,.066.054-.012.054.054.126,0,.152.114.215.215.106.035.153.023.188.134.061.031.038.081.081.081,0,.084.161.147.161.188.226.175.565-.1.565-.3.211,0,.008-1.7.107-1.7,0-.206.162-.449.162-.673.085,0,.08-.619.188-.619a1.988,1.988,0,0,1,.188-.592c.075,0,.078-.565.188-.565a2.438,2.438,0,0,1,.243-.7,3.085,3.085,0,0,1,.242-.7c0-.038.052-.215.081-.215,0-.036.1-.269.134-.269.019-.112.2-.592.269-.592,0-.164.169-.333.2-.5.019-.094.121-.191.121-.282.046,0,.128-.265.215-.323,0-.083.024-.044.054-.162.036,0,.044-.161.056-.207a1.232,1.232,0,0,0,0-.627,4.357,4.357,0,0,0-.055-.437c-.01-.108.055-.248.055-.4.033,0,.111-.484.189-.484,0-.1.177-.538.269-.538.035-.136.083-.417.2-.511.09-.072.178-.3.31-.3.083-.125.2-.15.31-.283a.4.4,0,0,1,.363-.2c0-.084.553-.131.673-.169l.645-.207c.242,0,.4-.03.632-.047.271-.019,2.327-.4,2.327-.356.243,0,2.029-.373,2.442-.4.377-.022.773-.218,1.19-.24.135-.007,1.022-.033,1.022-.117.365,0,.615-.027.915-.027,0-.073.63-.108.74-.108.3,0,1.689-.266,1.789-.283a3.155,3.155,0,0,0,.6-.093,13.638,13.638,0,0,1,1.418-.3c0-.089.484-.154.484-.242a3.37,3.37,0,0,0,.781-.108,1.093,1.093,0,0,1,.57.011l.291.1c.074.082.183.269.3.269.052.07.188.176.188.242.142.119.272.289.4.377,0,.092.107.137.107.242.069,0,.151.278.242.323.056.171.194.269.242.458a1.079,1.079,0,0,1,.161.376c.034,0,.1.376.162.376a11.169,11.169,0,0,1,0,2.206.358.358,0,0,1-.161.363.635.635,0,0,1-.471.135c-.148-.046-.144-.013-.283-.013a2.759,2.759,0,0,1-.666-.081,13.52,13.52,0,0,0-1.674-.134,2.135,2.135,0,0,1-.584.054c-.184,0-.3.054-.466.054a2.77,2.77,0,0,0-.461.056,1.038,1.038,0,0,1-.387-.043c-.045-.006-.256.028-.256.067a2.389,2.389,0,0,0-.693.016c-.143.049-1.052.042-1.2.079a1.3,1.3,0,0,1-.344.067.958.958,0,0,0-.472.023,1.227,1.227,0,0,1-.455,0,3.55,3.55,0,0,0-.552.054c0,.056-.564.054-.649.055-.116,0-1.046.109-1.046.106-.137.013-1.238.079-1.238.081-.329.032-.446.131-.771.144a16.192,16.192,0,0,0-2.028.314c-.183.046-.154.111-.3.229-.193.161-.315.243-.511.39,0,.095-.148.23-.188.35-.064,0-.043.162-.108.162,0,.147-.4.687-.413.816a.6.6,0,0,0,.225.61c.3,0,.564.081.888.081,0,.057.372.044.43.04a4.982,4.982,0,0,1,.646.041,5.939,5.939,0,0,1,.922.081,1.99,1.99,0,0,0,.4-.028c0-.044.448-.048.507-.046.079,0,.823-.115.946-.115,0,.027.626-.149.7-.162a.625.625,0,0,1,.753-.188,2.675,2.675,0,0,0,.269.108c.036.048.242.17.242.188.05,0,.216.058.216.108.132,0,.179.2.269.242,0,.063.888,1.422.888,1.534.129.067.134.308.134.431,0,.169.054.247.054.39,0,.2,0,.4,0,.6,0,.151-.022.868-.164.868a.318.318,0,0,1-.134.256c-.119.1-.4.4-.4.578-.056.134-.566.436-.566.484a1.9,1.9,0,0,0-.618.144c-.141.047-.266.152-.376.152,0,.054-.209.126-.256.189-.186.248.145.564.337.74a.7.7,0,0,1,.242.31.53.53,0,0,1,.377.377,15.791,15.791,0,0,1-.134,2.125c0,.1-.32,1.114-.546,1.2a9.647,9.647,0,0,1-1.391.574c0,.221-4.144.624-4.655.622-.075,0-.835.043-.835-.057a2.8,2.8,0,0,1-.807-.161c-.107-.036-1.311-.3-1.426-.538a.68.68,0,0,1-.3-.2.863.863,0,0,0-.349-.2c-.041-.081-.106-.08-.189-.108-.051-.064-.074-.134-.161-.134a4.244,4.244,0,0,0-.377-.376.448.448,0,0,1-.215-.134c-.1-.065-.048-.092-.135-.135,0-.141-.128-.151-.188-.269-.112,0-.276-.211-.35-.3a.562.562,0,0,1-.188-.269c-.12-.1-.13-.183-.216-.269-.042-.043-.269-.139-.269-.108-.211,0-.318.484-.4.484,0,.095-.1.195-.121.3-.008.048-.089.322-.148.322a.936.936,0,0,1-.243.457,2.511,2.511,0,0,1-.269.458.517.517,0,0,1-.175.268c-.131.1-.122.261-.256.35-.139.162-.271.214-.4.355-.15.16-.32.4-.524.439s-.328.175-.538.175c-.117,0-.205.058-.363.068-.238.014-.449.05-.71.062-.319.013-.716-.064-1.071-.081-.183-.009-.385-.049-.533-.049-.131,0-.192-.081-.323-.081-.044,0-.35.062-.35-.026-.144-.024-.178-.075-.3-.094-.21-.035-.355-.162-.573-.184-.173-.017-.241-.091-.395-.117-.064-.011-.377-.062-.377-.143-.057-.007-.35-.041-.35-.108-.121,0-.191-.1-.323-.135,0-.07-.538-.187-.538-.215-.049,0-.269-.047-.269-.108-.142,0-.244-.215-.4-.215,0-.046-.316-.188-.377-.188a.538.538,0,0,0-.242-.134c-.072-.141-.253-.1-.323-.242a.41.41,0,0,1-.242-.162.329.329,0,0,1-.189-.081.833.833,0,0,0-.269-.161,1.086,1.086,0,0,0-.35-.269.684.684,0,0,1-.349-.229.645.645,0,0,0-.3-.2c-.05-.1-.2-.137-.269-.229-.115-.143-.278-.161-.376-.309-.227-.161-.406-.425-.646-.484-.2-.247-.433-.342-.637-.574-.085-.1-.138-.1-.171-.233-.064-.052-.135-.075-.135-.162-.054-.066-.118-.02-.161-.108a1.442,1.442,0,0,1-.457-.619c-.213-.159-.239-.444-.457-.592,0-.09-.054-.044-.054-.134-.107-.071-.1-.148-.182-.242l-.222-.242h-.243c.008.062-.01.089-.054.081a2.321,2.321,0,0,1-.215.646c-.02.436-.112.868-.1,1.3.012.379.152.755.152,1.126,0,.464.054.9.054,1.336-.085,0-.046.687-.063.813s-.042.3-.153.371c0,.081-.1.308-.126.413a1.312,1.312,0,0,1-.3.536,1.114,1.114,0,0,1-.332.261c0,.071-.216.091-.216.135-.065,0-.43.025-.43-.027-.157,0-.013-.027-.134-.027,0-.061-.174,0-.216.009a.859.859,0,0,1-.341-.054c-.085-.015-.44-.124-.44-.2a.88.88,0,0,1-.578-.242,1.492,1.492,0,0,0-.31-.323c-.036-.112-.188-.21-.188-.323-.253-.131-.229-.623-.242-.888a6.186,6.186,0,0,1-.1-1.457,4.831,4.831,0,0,1,.037-.956,5.906,5.906,0,0,0,.036-1.076.737.737,0,0,0-.485-.6c0-.149-.941-.114-.941-.054-.4-.01-.866,0-1.225,0a3.132,3.132,0,0,0-.524.161c-.219,0-.4.108-.592.108,0,.009-.7.176-.807.188,0,.051-.566.059-.566.162-.045,0-.188.068-.188.108-.13.032-.209.108-.323.108-.141.165-.3.3-.449.46-.052.057-.188.4-.224.4-.02.061-.131.269-.162.269,0,.1-.108.161-.108.269-.1.065-.093.195-.188.242a2.54,2.54,0,0,1-.108.269,3.121,3.121,0,0,0-.081.35c-.069,0-.355.915-.431.915-.033.136-.073.105-.107.242-.1.065-.067.141-.161.189-.081.223-.2.37-.269.592-.061.03-.038.081-.081.081,0,.095-.1.141-.162.2a5.134,5.134,0,0,0-.43.39c-.16.053-.366.346-.556.18a14.663,14.663,0,0,0-1.624-.826c-.073-.1-.242-.16-.242-.269-.152-.074-.24-.646-.3-.646a8.5,8.5,0,0,1-.149-.869c0-.068.015-.261.068-.261,0-.1-.031-.511.053-.511.067-.264.162-.462.243-.8.055-.231.323-.431.323-.678.04,0,.107-.142.107-.188.119-.079.12-.177.243-.269a.5.5,0,0,1,.135-.269.8.8,0,0,1,.269-.35.874.874,0,0,1,.3-.484c.074-.227.3-.446.3-.673.115,0,.129-.457.215-.457,0-.1.087-.2.108-.323.059,0,.108-.234.108-.3.151,0,.164-.646.269-.646,0-.106.054-.182.054-.332a2.18,2.18,0,0,1-.012-.462c.028-.158.051-.31.065-.47.075-.142.244-.241.35-.359s.131-.172.269-.206c.064-.1.142-.067.188-.162.124,0,.258-.2.367-.3a1.047,1.047,0,0,0,.3-.468c.029-.086.1-.393.166-.393a1.218,1.218,0,0,1,.269-.484c0-.144.159-.262.215-.431.068-.2.182-.276.242-.511a.43.43,0,0,0,.135-.3c.031,0,.134-.233.188-.269,0-.117.156-.178.175-.309.007-.048.125-.363.175-.363,0-.105.091-.193.134-.323.088-.045.064-.242.135-.242,0-.122.1-.226.135-.35.073-.036.13-.242.188-.242,0-.141.215-.283.215-.431.073,0,.078-.228.161-.269.079-.322.457-.471.457-.807a.368.368,0,0,0,.161-.215.373.373,0,0,0,.162-.242c.167-.083.194-.38.349-.457a.947.947,0,0,1,.215-.35c.07-.206.511-.412.511-.619.036,0,.107-.122.107-.162l.3-.28c.106-.1.2-.206.3-.312s.266-.147.316-.3c.12-.1.34-.223.4-.35.1,0,.165-.164.242-.229.116-.1.147-.164.3-.2.168-.328.77-.126,1.022-.094.041.005.189.031.189.067a1.415,1.415,0,0,1,.357.045c.169.053.478.131.531.331" transform="translate(-343.818 99.821)" fill="000" fill-rule="evenodd"></path>
        <path id="path32" d="M95.724-96.636c-.02.178-.081.261-.081.4a.9.9,0,0,0-.162.3.617.617,0,0,0-.188.3c-.058.044-.162.215-.188.215a1.008,1.008,0,0,1-.323.384c-.1.09-.25.4-.376.4-.031.06-.108.056-.108.108-.1,0-.154.117-.215.188a.792.792,0,0,0-.309.215.363.363,0,0,1-.215.121,1.2,1.2,0,0,1-.45.032c-.131-.021-.128-.179-.128-.288-.082,0,.057-.852.071-.941a2.813,2.813,0,0,0,.09-.35c.094,0-.014-.485.081-.485,0-.17.054-.215.054-.377.05,0,.027-.438.027-.511a1.936,1.936,0,0,0-.014-.723,1.828,1.828,0,0,1,.122-.676.937.937,0,0,1,.323-.484c.3,0,.435.161.7.161a2.83,2.83,0,0,0,.538.242c.106.141.283.208.377.35.116,0,.16.161.242.215a.666.666,0,0,0,.108.242,1.614,1.614,0,0,1,.1.484C95.8-97.061,95.837-96.636,95.724-96.636Zm6.08,10.95c-.011,0-.115-.316-.135-.376a1,1,0,0,1-.242-.215c-.138-.046-.118-.269-.269-.269a2.13,2.13,0,0,1-.215-.269c-.281-.07-.326-.422-.592-.511-.136-.046-.188-.128-.323-.161a.56.56,0,0,0-.269-.162c-.079-.119-.177-.12-.269-.242a.8.8,0,0,1-.3-.189,1.054,1.054,0,0,0-.35-.081c-.088-.1-.271-.4-.4-.4a.687.687,0,0,0-.3-.189c-.109-.131-.209-.184-.323-.31a3.568,3.568,0,0,0-.3-.376c-.106-.088-.323-.233-.323-.363-.086,0-.067-.283-.04-.341a.8.8,0,0,1,.212-.237.41.41,0,0,0,.151-.283,2.481,2.481,0,0,0,.563-.552,1.134,1.134,0,0,1,.271-.309c.028-.084.027-.148.108-.189.012-.061.075-.3.135-.3,0-.121.2-.233.229-.363.036-.183.229-.309.229-.5.057,0,.188-.52.188-.592.095,0-.014-.484.081-.484,0-.046.053-.269.08-.269.036-.146.108-.2.108-.336a1.663,1.663,0,0,1,.107-.39.744.744,0,0,0,.081-.242c.074,0,.054-.3.054-.384,0-.186-.014-.415,0-.639.006-.143-.049-.189-.049-.349-.011,0,.064-.538-.081-.538,0-.245-.107-.423-.107-.646a1.373,1.373,0,0,1-.162-.457c-.054,0-.1-.3-.107-.376-.038,0-.108-.187-.108-.242-.139,0-.111-.619-.269-.619,0-.138-.215-.216-.215-.35a3.291,3.291,0,0,1-.511-.915c-.038,0-.125-.21-.175-.269-.081-.1-.363-.322-.363-.43-.1-.066-.186-.3-.323-.3a.731.731,0,0,0-.449-.287c-.234-.072-.145-.188-.291-.3a.639.639,0,0,0-.417-.189c0-.1-.592-.071-.592-.161-.309,0-.6-.162-.888-.162,0-.042-.24-.138-.289-.141l-.3-.02c-.038-.077-.081-.065-.161-.081,0-.093-.495-.188-.592-.188,0,0-.7-.108-.767-.108-.162,0-.955.039-.955.188-.116,0-.131.054-.269.054a1.925,1.925,0,0,1-.4.054c0,.091-.484.1-.484.188a.854.854,0,0,0-.511.269c-.054.08-.231.242-.323.242-.064.129-.269.211-.269.35-.315.213-.328.681-.525,1.009a1.3,1.3,0,0,0-.218.821,3.4,3.4,0,0,0,.058.872,1.572,1.572,0,0,1,.066.392c.032,0,.108.215.108.269.03,0,.134.233.188.269a.409.409,0,0,0,.161.242,1.33,1.33,0,0,0,.269.376c.051.076.214.191.231.28.01.056.1.366.011.366,0,.112-.058.158-.081.3-.111,0-.215.529-.215.619-.074,0-.1.565-.188.565,0,.406-.305.661-.363,1.063-.024.167-.095.3-.095.417-.034,0-.081.122-.081.161-.039,0-.081.162-.134.189,0,.113-.146.192-.215.3-.068,0-.149.04-.242.054,0,.059-.2.027-.242.027,0,.048-.268.054-.323.054,0,0-.238.17-.271.251-.062.157-.027.291-.193.389-.15.088-.223.118-.249.275a5.1,5.1,0,0,0-.067.538,1.985,1.985,0,0,0-.014.522c0,.19-.048.374-.031.566a2.022,2.022,0,0,0,.153.554c.021.12.081.184.081.269.1.05.179.269.215.377a1.378,1.378,0,0,1,.269.3c.038,0,.127.215.188.215,0,.187.017.307,0,.512A9.7,9.7,0,0,0,87.5-87.5c-.028.381-.145.735-.145,1.065a5.077,5.077,0,0,1-.134.78,9.933,9.933,0,0,1-.041,1c0,.044-.106.367-.013.367l.027.7a4.258,4.258,0,0,1,.188.619.647.647,0,0,1,.081.242.931.931,0,0,1,.161.269c.129.084.11.23.242.3,0,.09.157.184.229.242.253.2.4.522.74.585.253.047.807.043.807.114a1.484,1.484,0,0,0,.3,0,.727.727,0,0,0,.592-.108.667.667,0,0,1,.215-.35c0-.109.134-.137.134-.242.092-.045.068-.3.135-.3,0-.105.108-.2.108-.323a6.72,6.72,0,0,0-.027-.915c-.108,0-.069-.7-.074-.794-.009-.172-.06-.386-.06-.552,0-.14-.081-.294-.081-.441a2.53,2.53,0,0,0-.028-.58.926.926,0,0,1-.026-.459A3.673,3.673,0,0,0,90.989-87c.078,0,.3-.523.3-.592.1-.05.151-.235.28-.258.185-.034.2-.039.366.106.1.088.23.367.377.367.051.1.261.248.361.355s.212.083.312.183a.694.694,0,0,0,.269.134c.1.214.432.259.565.457.089,0,.3.194.363.269a.836.836,0,0,0,.363.242c.05.1.2.14.269.242.144.108.236.191.361.3.093.081.228.292.339.292.093.106.22.3.323.35.074.1.2.16.242.242.13.1.152.21.269.314.093.083.251.359.376.359,0,.111.227.225.269.35a3.521,3.521,0,0,1,.4.4c.121,0,.263.2.35.3.156,0,.222.269.377.269,0,.038.22.12.282.134.25.055.38.19.684.179.1,0,.675.043.675-.072.148,0,.541-.205.592-.4a1.108,1.108,0,0,1,.242-.08c.057-.117.215-.194.215-.323.026-.045.085-.161.107-.161.033-.131.215-.211.215-.323.085-.073.3-.237.3-.349.069-.06.161-.051.161-.162a.726.726,0,0,0,.242-.619c0-.367-.027-.823-.027-1.184" transform="translate(-65.072 103.643)" fill="000"></path>
      </g>
    </g>
  </symbol>
</svg>