<svg xmlns="http://www.w3.org/2000/svg" width="32" height="42.667" viewBox="0 0 32 42.667">
  <path id="file-invoice-dollar-solid" d="M5.333,0A5.338,5.338,0,0,0,0,5.333v32a5.338,5.338,0,0,0,5.333,5.333H26.667A5.338,5.338,0,0,0,32,37.333v-24H21.333a2.664,2.664,0,0,1-2.667-2.667V0Zm16,0V10.667H32Zm-16,6.667A1.337,1.337,0,0,1,6.667,5.333H12A1.333,1.333,0,1,1,12,8H6.667A1.337,1.337,0,0,1,5.333,6.667Zm0,5.333a1.337,1.337,0,0,1,1.333-1.333H12a1.333,1.333,0,0,1,0,2.667H6.667A1.337,1.337,0,0,1,5.333,12ZM16,18a1.337,1.337,0,0,1,1.333,1.333v1.442a16.685,16.685,0,0,1,2.008.425,1.333,1.333,0,1,1-.692,2.575,10.926,10.926,0,0,0-2.675-.442,3.943,3.943,0,0,0-1.967.458,1.162,1.162,0,0,0-.675,1.067c0,.308.108.542.608.842a11.713,11.713,0,0,0,2.433.908l.042.008h0a12.368,12.368,0,0,1,3.025,1.217,3.727,3.727,0,0,1,1.892,3.183,3.9,3.9,0,0,1-1.908,3.467,5.8,5.8,0,0,1-2.092.758v1.425a1.333,1.333,0,1,1-2.667,0V35.183a17.834,17.834,0,0,1-2.575-.742h0c-.175-.058-.35-.117-.517-.175a1.331,1.331,0,0,1,.842-2.525c.208.067.4.133.592.2h0a10.377,10.377,0,0,0,3.025.725,3.672,3.672,0,0,0,1.975-.442,1.239,1.239,0,0,0,.65-1.167,1.087,1.087,0,0,0-.642-.967,10.53,10.53,0,0,0-2.417-.933l-.133-.042h0a12.711,12.711,0,0,1-2.9-1.142,3.553,3.553,0,0,1-1.892-3.108,3.819,3.819,0,0,1,1.983-3.375,6.127,6.127,0,0,1,2.008-.725V19.333A1.337,1.337,0,0,1,16,18Z" fill="#1a2e35"/>
</svg>
