<svg xmlns="http://www.w3.org/2000/svg" width="53.454" height="47.515" viewBox="0 0 53.454 47.515">
  <path id="hand-holding-dollar-solid" d="M28.954,2.227V3.2c.594.111,1.169.251,1.689.39A2.229,2.229,0,0,1,29.493,7.9a11.751,11.751,0,0,0-2.8-.464,3.742,3.742,0,0,0-1.8.408,1.063,1.063,0,0,0-.325.278.442.442,0,0,0-.065.26v.056a1.061,1.061,0,0,0,.306.241,12.121,12.121,0,0,0,2.543.937l.084.028a14.559,14.559,0,0,1,3.517,1.42,4.876,4.876,0,0,1,2.45,4.167,5.1,5.1,0,0,1-2.478,4.5,6.907,6.907,0,0,1-1.977.817v.984a2.227,2.227,0,1,1-4.455,0V20.472c-.882-.213-1.689-.492-2.376-.724-.195-.065-.38-.13-.557-.186a2.23,2.23,0,0,1,1.411-4.232c.241.084.464.158.677.232a11.249,11.249,0,0,0,3.146.77,3.369,3.369,0,0,0,1.782-.38.861.861,0,0,0,.3-.269.625.625,0,0,0,.074-.38v-.019c0-.093,0-.195-.371-.427a11.285,11.285,0,0,0-2.515-.956l-.176-.056A14.758,14.758,0,0,1,22.5,12.51a4.691,4.691,0,0,1-2.469-4.093,5,5,0,0,1,2.571-4.4,7.238,7.238,0,0,1,1.875-.761V2.227a2.227,2.227,0,1,1,4.455,0ZM52.73,31.209a3.708,3.708,0,0,1-.789,5.188L40.193,45.056A12.632,12.632,0,0,1,32.7,47.515H2.97A2.966,2.966,0,0,1,0,44.545V38.606a2.966,2.966,0,0,1,2.97-2.97H6.385L10.552,32.3a11.855,11.855,0,0,1,7.424-2.6H32.666a2.97,2.97,0,0,1,0,5.939H25.242a1.485,1.485,0,0,0,0,2.97H36.434l11.108-8.185A3.708,3.708,0,0,1,52.73,31.209ZM17.967,35.636Z" fill="#1cabe5"/>
</svg>
