<svg xmlns="http://www.w3.org/2000/svg" width="45" height="45" viewBox="0 0 45 45">
  <path id="money-bill-trend-up-solid" d="M41.37.826a3.032,3.032,0,0,1,.606.905A2.683,2.683,0,0,1,42.188,2.8v.009h0V11.25a2.813,2.813,0,0,1-5.625,0V9.606L27.3,18.861a2.818,2.818,0,0,1-3.823.149l-8.007-6.873L7.453,19.011A2.811,2.811,0,1,1,3.8,14.739L13.641,6.3a2.812,2.812,0,0,1,3.665,0l7.866,6.741,7.409-7.418H30.938a2.813,2.813,0,0,1,0-5.625h8.438a2.833,2.833,0,0,1,1.986.817l.009.009ZM0,26.719A4.22,4.22,0,0,1,4.219,22.5H40.781A4.22,4.22,0,0,1,45,26.719V40.781A4.22,4.22,0,0,1,40.781,45H4.219A4.22,4.22,0,0,1,0,40.781Zm4.219,9.844v4.219H8.438A4.22,4.22,0,0,0,4.219,36.563Zm4.219-9.844H4.219v4.219A4.22,4.22,0,0,0,8.438,26.719Zm32.344,9.844a4.22,4.22,0,0,0-4.219,4.219h4.219Zm-4.219-9.844a4.22,4.22,0,0,0,4.219,4.219V26.719ZM28.125,33.75A5.625,5.625,0,1,0,22.5,39.375,5.625,5.625,0,0,0,28.125,33.75Z" fill="#47b484"/>
</svg>
