<svg id="Group_478" data-name="Group 478" xmlns="http://www.w3.org/2000/svg" width="1524.49" height="1350.638" viewBox="0 0 1524.49 1350.638">
  <path id="Path_390" data-name="Path 390" d="M1094.106,92.314c-78.52,43.659-133.884,117.067-201.028,175.981-82.907,72.741-185.643,123.943-294.814,146.926-89.809,18.906-183.952,19.175-270.655,48.761C158.606,521.646,42.6,692.808,39.52,866.841s98.965,342.617,248.7,438.131a604.844,604.844,0,0,0,165.4,73.245c110.147,30.125,226.918,28.788,340.725,17.276,196.58-19.888,402.643-128.356,526.534-281.294a1091.2,1091.2,0,0,0,139.071-221.905c61.026-129.622,96.565-270.719,102.639-413.193,5.222-122.432-.1-258.09-99.933-347.282C1363.052,42.826,1211.274,27.176,1094.106,92.314Z" transform="translate(-39.452 -52.422)" fill="#000" fill-opacity="0.06"/>
</svg>
