<svg xmlns="http://www.w3.org/2000/svg" xmlns:xlink="http://www.w3.org/1999/xlink" width="1366" height="441" viewBox="0 0 1366 441">
  <defs>
    <clipPath id="clip-path">
      <rect id="Rectangle_231" data-name="Rectangle 231" width="1366" height="441" transform="translate(0 3143)" fill="#1a2e35"/>
    </clipPath>
    <clipPath id="clip-path-2">
      <rect id="Rectangle_230" data-name="Rectangle 230" width="208.486" height="208.463" fill="none"/>
    </clipPath>
  </defs>
  <g id="Mask_Group_1" data-name="Mask Group 1" transform="translate(0 -3143)" clip-path="url(#clip-path)">
    <g id="Group_498" data-name="Group 498" transform="translate(1231 3070)">
      <path id="Path_600" data-name="Path 600" d="M119.328,208.448l6.178.015,10.08-10.047.016-6.178Z" fill="#5ae4a8"/>
      <path id="Path_601" data-name="Path 601" d="M94.822,208.4l6.178.015,34.633-34.5v-6.178Z" fill="#5ae4a8"/>
      <path id="Path_602" data-name="Path 602" d="M70.285,208.368h6.209L135.665,149.4l.016-5.875v-.318Z" fill="#5ae4a8"/>
      <g id="Group_497" data-name="Group 497">
        <g id="Group_496" data-name="Group 496" clip-path="url(#clip-path-2)">
          <path id="Path_603" data-name="Path 603" d="M135.72,129.4v-2.18l-19.56,19.51a3.776,3.776,0,0,1-3.42,1.06l-47.92,47.73.02-6.18v-.02l44.81-44.63a3.83,3.83,0,0,1,1.06-3.42l25.03-24.95.01-5.49,45.85-45.68,18.57.03Z" fill="#5ae4a8"/>
          <path id="Path_604" data-name="Path 604" d="M135.759,105.371v-2.64L98.469,139.9a3.828,3.828,0,0,1-3.439,1.06l-30.161,30.05.02-6.19,27.05-26.96a3.843,3.843,0,0,1,1.08-3.42l42.71-42.57a20.525,20.525,0,0,0-.75-4.26l22.591-22.5,18.569.03Z" fill="#5ae4a8"/>
          <path id="Path_605" data-name="Path 605" d="M152.109,65.1l-18.7,18.62a20.117,20.117,0,0,0-1.17-1.95l-51.48,51.3a3.808,3.808,0,0,1-3.42,1.06l-16.97,16.91a20.991,20.991,0,0,0-3.09-3.09l16.97-16.92a3.836,3.836,0,0,1,1.07-3.43l51.47-51.29a19.616,19.616,0,0,0-2.89-1.65l19.66-19.58-.02,10Z" fill="#5ae4a8"/>
          <path id="Path_606" data-name="Path 606" d="M143.6,31.051l-.031,18.57L119.84,73.261a19.324,19.324,0,0,0-3.151-.47L74,115.341a3.8,3.8,0,0,1-3.43,1.05l-27.05,26.96-6.18-.01,30.139-30.03a3.834,3.834,0,0,1,1.07-3.43l37.291-37.16.01-.01-4.061-.01Z" fill="#5ae4a8"/>
          <path id="Path_607" data-name="Path 607" d="M143.649,7.021l-.04,18.57-47.28,47.1-4.07-.01-25.03,24.94a3.879,3.879,0,0,1-3.43,1.05L19.009,143.3H19l-6.17-.01,47.89-47.71a3.83,3.83,0,0,1,1.06-3.42l19.55-19.49-3.57-.01Z" fill="#5ae4a8"/>
          <path id="Path_608" data-name="Path 608" d="M65.381,72.639,0,137.781V131.6L59.2,72.623l5.86.016Z" fill="#5ae4a8"/>
          <path id="Path_609" data-name="Path 609" d="M40.875,72.591.032,113.29.048,107.1,34.681,72.591Z" fill="#5ae4a8"/>
          <path id="Path_610" data-name="Path 610" d="M16.353,72.559.08,88.769.1,82.591,10.175,72.543Z" fill="#5ae4a8"/>
          <path id="Path_611" data-name="Path 611" d="M72.855,24.129,97.028.045,72.9,0Z" fill="#5ae4a8"/>
          <path id="Path_612" data-name="Path 612" d="M121.059.089,102.486.055,72.846,29.586,72.812,48.16Z" fill="#5ae4a8"/>
          <path id="Path_613" data-name="Path 613" d="M135.7,134.861l0,.964,7.705.014,9.9.018,55.144-54.942.029-15.714-2.859,0Z" fill="#5ae4a8"/>
          <path id="Path_614" data-name="Path 614" d="M72.8,53.616l-.034,18.573L143.654,1.562l0-1.432L126.515.1Z" fill="#5ae4a8"/>
          <path id="Path_615" data-name="Path 615" d="M182.8,135.91l25.557.046L208.4,110.4Z" fill="#5ae4a8"/>
          <path id="Path_616" data-name="Path 616" d="M208.414,104.944l.034-18.573-49.678,49.5,18.574.033Z" fill="#5ae4a8"/>
        </g>
      </g>
    </g>
  </g>
</svg>
