<svg xmlns="http://www.w3.org/2000/svg" width="540.439" height="519.785" viewBox="0 0 540.439 519.785">
  <g id="Group_475" data-name="Group 475" transform="translate(-208.357 472.229)">
    <g id="Background_Simple" data-name="Background Simple" transform="translate(214.527 -472.229)">
      <g id="Group_450" data-name="Group 450" transform="translate(0 0)">
        <path id="Path_390" data-name="Path 390" d="M409.063,66.809c-27.518,15.745-46.921,42.22-70.452,63.467a226.623,226.623,0,0,1-103.32,52.989c-31.474,6.818-64.467,6.915-94.853,17.586-59.228,20.8-99.883,82.526-100.963,145.29S74.159,469.7,126.635,504.152A209.024,209.024,0,0,0,184.6,530.567c38.6,10.864,79.525,10.383,119.409,6.23,68.893-7.173,141.109-46.291,184.527-101.448a395.441,395.441,0,0,0,48.738-80.03A399.18,399.18,0,0,0,573.246,206.3c1.83-44.155-.037-93.08-35.022-125.247C503.317,48.961,450.125,43.317,409.063,66.809Z" transform="translate(-39.452 -52.422)" fill="#d5f7e6"/>
      </g>
    </g>
    <g id="Shadow" transform="translate(285.554 -74.271)">
      <g id="Group_451" data-name="Group 451" transform="translate(0 0)">
        <ellipse id="Ellipse_25" data-name="Ellipse 25" cx="226.184" cy="60.914" rx="226.184" ry="60.914" fill="#b9f1d6"/>
      </g>
    </g>
    <g id="Window" transform="translate(262.111 -483.571)">
      <g id="Group_461" data-name="Group 461" transform="translate(0 0)">
        <path id="Rectangle_206" data-name="Rectangle 206" d="M8.95,0H279.537a8.951,8.951,0,0,1,8.951,8.951V162.686a8.951,8.951,0,0,1-8.951,8.951H8.95A8.95,8.95,0,0,1,0,162.686V8.95A8.95,8.95,0,0,1,8.95,0Z" transform="translate(0 31.365)" fill="#fff"/>
        <path id="Path_392" data-name="Path 392" d="M365.668,79.586v4.469H77.18V79.586A11.289,11.289,0,0,1,88.469,68.3H354.379A11.289,11.289,0,0,1,365.668,79.586Z" transform="translate(-77.18 -36.932)" fill="#5ae4a8"/>
        <path id="Rectangle_207" data-name="Rectangle 207" d="M8.95,0H279.537a8.951,8.951,0,0,1,8.951,8.951V162.686a8.951,8.951,0,0,1-8.951,8.951H8.95A8.95,8.95,0,0,1,0,162.686V8.95A8.95,8.95,0,0,1,8.95,0Z" transform="translate(0 31.365)" fill="none" stroke="#263238" stroke-linecap="round" stroke-linejoin="round" stroke-width="1"/>
        <path id="Path_393" data-name="Path 393" d="M365.668,79.586v4.469H77.18V79.586A11.289,11.289,0,0,1,88.469,68.3H354.379A11.289,11.289,0,0,1,365.668,79.586Z" transform="translate(-77.18 -36.932)" fill="none" stroke="#263238" stroke-linecap="round" stroke-linejoin="round" stroke-width="1"/>
        <path id="Path_394" data-name="Path 394" d="M104.061,75.141a2.882,2.882,0,1,1-2.882-2.882A2.882,2.882,0,0,1,104.061,75.141Z" transform="translate(-71.663 -35.897)" fill="#263238"/>
        <path id="Path_395" data-name="Path 395" d="M116.012,75.141a2.882,2.882,0,1,1-2.882-2.882A2.882,2.882,0,0,1,116.012,75.141Z" transform="translate(-68.541 -35.897)" fill="#263238"/>
        <circle id="Ellipse_27" data-name="Ellipse 27" cx="2.882" cy="2.882" r="2.882" transform="translate(56.779 36.362)" fill="#263238"/>
        <g id="Group_453" data-name="Group 453" transform="translate(17.108 59.617)">
          <rect id="Rectangle_208" data-name="Rectangle 208" width="90.87" height="48.545" rx="3.69" fill="none" stroke="#263238" stroke-linecap="round" stroke-linejoin="round" stroke-width="1"/>
          <g id="Group_452" data-name="Group 452" transform="translate(5.344 7.044)">
            <line id="Line_37" data-name="Line 37" x2="78.793" transform="translate(0 35.397)" fill="none" stroke="#263238" stroke-linecap="round" stroke-linejoin="round" stroke-width="1"/>
            <rect id="Rectangle_209" data-name="Rectangle 209" width="9.142" height="9.142" transform="translate(5.849 26.128)" fill="#5ae4a8" stroke="#263238" stroke-width="1"/>
            <rect id="Rectangle_210" data-name="Rectangle 210" width="9.142" height="21.288" transform="translate(19.233 14.109)" fill="#5ae4a8" stroke="#263238" stroke-width="1"/>
            <rect id="Rectangle_211" data-name="Rectangle 211" width="9.142" height="17.842" transform="translate(34.305 17.77)" fill="#58e4a7" stroke="#263238" stroke-width="1"/>
            <rect id="Rectangle_212" data-name="Rectangle 212" width="9.142" height="35.001" transform="translate(50.14)" fill="#5ae4a8" stroke="#263238" stroke-width="1"/>
            <rect id="Rectangle_213" data-name="Rectangle 213" width="9.142" height="35.001" transform="translate(65.974 0.269)" fill="#58e4a7" stroke="#263238" stroke-width="1"/>
          </g>
        </g>
        <g id="Group_455" data-name="Group 455" transform="translate(195.071 59.544)">
          <circle id="Ellipse_28" data-name="Ellipse 28" cx="25.565" cy="25.565" r="25.565" fill="#59e3a8" stroke="#263238" stroke-width="1"/>
          <g id="Group_454" data-name="Group 454" transform="translate(17.424 6.998)">
            <path id="Path_396" data-name="Path 396" d="M255.9,130.7v2.618h-4.284V130.7a7.809,7.809,0,0,1-5.952-7.951v-1.191l4.857-.523v1.237c0,2.428,1.237,3.9,3.236,3.9a2.988,2.988,0,0,0,3.238-3.19c0-2.333-2.19-4.332-4.761-6.475-3.046-2.522-6.093-5.523-6.093-9.759,0-4.142,2-7.093,5.475-7.951V96.188H255.9v2.618c3.523.81,5.57,3.761,5.57,8v.856l-4.856.523v-.952c0-2.57-1-3.9-2.761-3.9s-2.761,1.095-2.761,3.19c0,2.333,2.237,4.284,4.76,6.475,3,2.57,6.094,5.522,6.094,9.759A7.767,7.767,0,0,1,255.9,130.7Z" transform="translate(-245.66 -96.188)" fill="#263238"/>
          </g>
        </g>
        <g id="Group_460" data-name="Group 460" transform="translate(14.981)">
          <g id="Group_456" data-name="Group 456" transform="translate(0 132.967)">
            <line id="Line_38" data-name="Line 38" x2="7.471" fill="none" stroke="#263238" stroke-linecap="round" stroke-linejoin="round" stroke-width="1"/>
            <line id="Line_39" data-name="Line 39" x2="7.471" transform="translate(0 14.43)" fill="none" stroke="#263238" stroke-linecap="round" stroke-linejoin="round" stroke-width="1"/>
            <line id="Line_40" data-name="Line 40" x2="7.471" transform="translate(0 28.86)" fill="none" stroke="#263238" stroke-linecap="round" stroke-linejoin="round" stroke-width="1"/>
            <line id="Line_41" data-name="Line 41" x2="7.471" transform="translate(0 43.29)" fill="none" stroke="#263238" stroke-linecap="round" stroke-linejoin="round" stroke-width="1"/>
          </g>
          <g id="Group_457" data-name="Group 457" transform="translate(23.925 181.362)">
            <line id="Line_42" data-name="Line 42" y1="5.8" fill="none" stroke="#263238" stroke-linecap="round" stroke-linejoin="round" stroke-width="1"/>
            <line id="Line_43" data-name="Line 43" y1="5.8" transform="translate(11.834)" fill="none" stroke="#263238" stroke-linecap="round" stroke-linejoin="round" stroke-width="1"/>
            <line id="Line_44" data-name="Line 44" y1="5.8" transform="translate(23.667)" fill="none" stroke="#263238" stroke-linecap="round" stroke-linejoin="round" stroke-width="1"/>
            <line id="Line_45" data-name="Line 45" y1="5.8" transform="translate(35.501)" fill="none" stroke="#263238" stroke-linecap="round" stroke-linejoin="round" stroke-width="1"/>
            <line id="Line_46" data-name="Line 46" y1="5.8" transform="translate(47.335)" fill="none" stroke="#263238" stroke-linecap="round" stroke-linejoin="round" stroke-width="1"/>
            <line id="Line_47" data-name="Line 47" y1="5.8" transform="translate(59.168)" fill="none" stroke="#263238" stroke-linecap="round" stroke-linejoin="round" stroke-width="1"/>
            <line id="Line_48" data-name="Line 48" y1="5.8" transform="translate(71.002)" fill="none" stroke="#263238" stroke-linecap="round" stroke-linejoin="round" stroke-width="1"/>
            <line id="Line_49" data-name="Line 49" y1="5.8" transform="translate(82.836)" fill="none" stroke="#263238" stroke-linecap="round" stroke-linejoin="round" stroke-width="1"/>
            <line id="Line_50" data-name="Line 50" y1="5.8" transform="translate(94.669)" fill="none" stroke="#263238" stroke-linecap="round" stroke-linejoin="round" stroke-width="1"/>
            <line id="Line_51" data-name="Line 51" y1="5.8" transform="translate(106.503)" fill="none" stroke="#263238" stroke-linecap="round" stroke-linejoin="round" stroke-width="1"/>
            <line id="Line_52" data-name="Line 52" y1="5.8" transform="translate(118.337)" fill="none" stroke="#263238" stroke-linecap="round" stroke-linejoin="round" stroke-width="1"/>
            <line id="Line_53" data-name="Line 53" y1="5.8" transform="translate(130.171)" fill="none" stroke="#263238" stroke-linecap="round" stroke-linejoin="round" stroke-width="1"/>
            <line id="Line_54" data-name="Line 54" y1="5.8" transform="translate(142.004)" fill="none" stroke="#263238" stroke-linecap="round" stroke-linejoin="round" stroke-width="1"/>
            <line id="Line_55" data-name="Line 55" y1="5.8" transform="translate(153.838)" fill="none" stroke="#263238" stroke-linecap="round" stroke-linejoin="round" stroke-width="1"/>
            <line id="Line_56" data-name="Line 56" y1="5.8" transform="translate(165.672)" fill="none" stroke="#263238" stroke-linecap="round" stroke-linejoin="round" stroke-width="1"/>
            <line id="Line_57" data-name="Line 57" y1="5.8" transform="translate(177.057)" fill="none" stroke="#263238" stroke-linecap="round" stroke-linejoin="round" stroke-width="1"/>
            <line id="Line_58" data-name="Line 58" y1="5.8" transform="translate(188.442)" fill="none" stroke="#263238" stroke-linecap="round" stroke-linejoin="round" stroke-width="1"/>
            <line id="Line_59" data-name="Line 59" y1="5.8" transform="translate(199.827)" fill="none" stroke="#263238" stroke-linecap="round" stroke-linejoin="round" stroke-width="1"/>
          </g>
          <path id="Path_397" data-name="Path 397" d="M342.929,143.288v56.081c0,3.839-3.91,6.951-8.735,6.951H97.793a9.324,9.324,0,0,1-7.53-3.427,5.9,5.9,0,0,1-1.206-3.524V143.288c0-3.839,3.91-6.951,8.735-6.951h236.4C339.019,136.337,342.929,139.448,342.929,143.288Z" transform="translate(-89.058 -19.157)" fill="none" stroke="#6ee1b0" stroke-linecap="round" stroke-linejoin="round" stroke-width="1"/>
          <g id="Group_459" data-name="Group 459" transform="translate(0 54.24)">
            <g id="Group_458" data-name="Group 458" transform="translate(0 7.949)">
              <path id="Path_398" data-name="Path 398" d="M218.34,55.383l-53.593,72.192-20.5,27.608-22.386-14.257L94.471,177.276h-.4a4.925,4.925,0,0,1-4.255-2.434L120.6,133.987l22.369,14.239L158.3,127.575,214.18,52.3Z" transform="translate(-89.819 -52.303)" fill="#263238"/>
            </g>
            <path id="Path_399" data-name="Path 399" d="M218.117,55.374l19.7-11.945L232.37,64.084,228.9,54.529Z" transform="translate(-103.196 -43.429)" fill="#263238"/>
          </g>
        </g>
      </g>
    </g>
    <g id="Floor" transform="translate(209.063 -379.709)">
      <g id="Group_464" data-name="Group 464" transform="translate(0 0)">
        <g id="Group_463" data-name="Group 463" transform="translate(0 116.097)">
          <path id="Path_400" data-name="Path 400" d="M528.4,310.522H84.835l-49.715,44.2" transform="translate(-35.12 -193.612)" fill="none" stroke="#263238" stroke-linecap="round" stroke-linejoin="round" stroke-width="1"/>
          <g id="Group_462" data-name="Group 462" transform="translate(49.995)">
            <line id="Line_60" data-name="Line 60" y1="85.956" fill="none" stroke="#263238" stroke-linecap="round" stroke-linejoin="round" stroke-width="1"/>
            <line id="Line_61" data-name="Line 61" y1="16.626" transform="translate(0 95.293)" fill="none" stroke="#263238" stroke-linecap="round" stroke-linejoin="round" stroke-width="1"/>
          </g>
        </g>
        <g id="freepik--Plants--inject-120" transform="translate(404.277)">
          <path id="Path_401" data-name="Path 401" d="M409.239,149.671s0-5.193-7.276-12.469-11.941-11.424-11.941-11.424-3.639,11.943,3.11,19.219a127.711,127.711,0,0,0,16.107,14.059Z" transform="translate(-346.936 -125.778)" fill="#5ae4a8"/>
          <path id="Path_402" data-name="Path 402" d="M400.873,175.4s0-5.194-7.276-12.47S381.654,151.5,381.654,151.5s-3.637,11.941,3.112,19.218a128.411,128.411,0,0,0,16.107,14.06Z" transform="translate(-349.122 -119.058)" fill="#5ae4a8"/>
          <path id="Path_403" data-name="Path 403" d="M404.9,156.24s.545-5.167,8.55-11.635,13.084-10.1,13.084-10.1,2.356,12.3-5.131,18.78a127.621,127.621,0,0,1-17.5,12.249Z" transform="translate(-343.053 -123.497)" fill="#5ae4a8"/>
          <path id="Path_404" data-name="Path 404" d="M394.984,186.122s1.09-5.079,9.719-10.668,14.06-8.674,14.06-8.674,1.054,12.443-7.03,18.146a127.719,127.719,0,0,1-18.682,10.335Z" transform="translate(-345.889 -115.066)" fill="#5ae4a8"/>
          <path id="Path_405" data-name="Path 405" d="M396.487,220.178s0-5.193,7.266-12.46S415.7,196.294,415.7,196.294s3.637,11.952-3.119,19.219a127.455,127.455,0,0,1-16.1,14.06Z" transform="translate(-344.991 -107.356)" fill="#5ae4a8"/>
          <path id="Path_406" data-name="Path 406" d="M400.091,228.786s.738-5.14-5.431-13.374-10.2-13.014-10.2-13.014-5.272,11.31.361,19.472a127.9,127.9,0,0,0,13.946,16.169Z" transform="translate(-348.719 -105.762)" fill="#5ae4a8"/>
          <path id="Path_407" data-name="Path 407" d="M390.7,252.221s0-5.194,7.267-12.46,11.95-11.424,11.95-11.424,3.639,11.952-3.119,19.218a127.163,127.163,0,0,1-16.1,14.06Z" transform="translate(-346.502 -98.985)" fill="#5ae4a8"/>
          <path id="Path_408" data-name="Path 408" d="M394.58,274.793s-1.31-5.026,3.892-13.919,8.665-14.06,8.665-14.06,6.538,10.642,1.854,19.385a127.886,127.886,0,0,1-12.03,17.645Z" transform="translate(-345.528 -94.158)" fill="#5ae4a8"/>
          <path id="Path_409" data-name="Path 409" d="M409.539,143.7a148.039,148.039,0,0,1-2,16.125c-2.873,14.851-10.061,24.438-12.935,37.847s5.378,30.7,3.173,47.936-8.919,26.81-7.03,38.313,11.977,42.638,11.977,42.638" transform="translate(-346.576 -121.097)" fill="none" stroke="#263238" stroke-linecap="round" stroke-linejoin="round" stroke-width="1.177"/>
          <line id="Line_62" data-name="Line 62" y1="6.019" x2="7.839" transform="translate(61.776 30.177)" fill="none" stroke="#263238" stroke-linecap="round" stroke-linejoin="round" stroke-width="1.177"/>
          <line id="Line_63" data-name="Line 63" x1="3.278" y1="5.835" transform="translate(58.859 23.437)" fill="none" stroke="#263238" stroke-linecap="round" stroke-linejoin="round" stroke-width="1.177"/>
          <path id="Path_410" data-name="Path 410" d="M394.09,188.015s6.555-4.921,13.3-9.843" transform="translate(-345.618 -112.09)" fill="none" stroke="#263238" stroke-linecap="round" stroke-linejoin="round" stroke-width="1.177"/>
          <path id="Path_411" data-name="Path 411" d="M399.1,181.531s-5.466-10.721-11.661-17.83" transform="translate(-347.354 -115.871)" fill="none" stroke="#263238" stroke-linecap="round" stroke-linejoin="round" stroke-width="1.177"/>
          <path id="Path_412" data-name="Path 412" d="M396.689,224.979a81.327,81.327,0,0,1,14.059-18.77" transform="translate(-344.939 -104.766)" fill="none" stroke="#263238" stroke-linecap="round" stroke-linejoin="round" stroke-width="1.177"/>
          <path id="Path_413" data-name="Path 413" d="M398.061,230.995a92.251,92.251,0,0,0-7.108-13.515c-3.832-5.65-4.394-6.379-4.394-6.379" transform="translate(-347.585 -103.488)" fill="none" stroke="#263238" stroke-linecap="round" stroke-linejoin="round" stroke-width="1.177"/>
          <path id="Path_414" data-name="Path 414" d="M390.7,259.4a86.981,86.981,0,0,1,5.905-11.95,76.782,76.782,0,0,1,7.653-10.027" transform="translate(-346.502 -96.612)" fill="none" stroke="#263238" stroke-linecap="round" stroke-linejoin="round" stroke-width="1.177"/>
          <path id="Path_415" data-name="Path 415" d="M396.451,281.644a22.286,22.286,0,0,1,1.968-11.5c2.733-5.281,5.827-12.214,7.11-14.938" transform="translate(-345.026 -91.967)" fill="none" stroke="#263238" stroke-linecap="round" stroke-linejoin="round" stroke-width="1.177"/>
          <path id="Path_416" data-name="Path 416" d="M367.307,203.281s-.571-3.251,3.207-8.6,6.247-8.479,6.247-8.479,3.577,7.091.132,12.39a81.148,81.148,0,0,1-8.576,10.544Z" transform="translate(-352.622 -109.993)" fill="#5ae4a8"/>
          <path id="Path_417" data-name="Path 417" d="M375.347,218.5s-.571-3.26,3.2-8.612,6.257-8.463,6.257-8.463,3.576,7.1.131,12.39a80.865,80.865,0,0,1-8.576,10.545Z" transform="translate(-350.522 -106.015)" fill="#5ae4a8"/>
          <path id="Path_418" data-name="Path 418" d="M371.59,206.442s-.879-3.181-6.625-6.363-9.307-4.92-9.307-4.92-.14,7.908,5.273,11.23a81.626,81.626,0,0,0,12.3,5.773Z" transform="translate(-355.658 -107.653)" fill="#5ae4a8"/>
          <path id="Path_419" data-name="Path 419" d="M381.454,224.027s-1.24-3.066-7.258-5.633-9.772-3.9-9.772-3.9.694,7.909,6.406,10.607a81.748,81.748,0,0,0,12.838,4.455Z" transform="translate(-353.368 -102.602)" fill="#5ae4a8"/>
          <path id="Path_420" data-name="Path 420" d="M383.379,245.7s-.563-3.26-5.914-7.03-8.734-5.87-8.734-5.87-.984,7.909,4.042,11.713a80.953,80.953,0,0,0,11.617,7.03Z" transform="translate(-352.263 -97.818)" fill="#5ae4a8"/>
          <path id="Path_421" data-name="Path 421" d="M381.3,251.868s-1.019-3.146,1.951-8.971,4.991-9.271,4.991-9.271,4.543,6.521,1.889,12.25a81.38,81.38,0,0,1-7.03,11.651Z" transform="translate(-349.003 -97.604)" fill="#5ae4a8"/>
          <path id="Path_422" data-name="Path 422" d="M388.642,271.762s.378-3.287,5.5-7.356,8.382-6.354,8.382-6.354,1.433,7.812-3.365,11.925a81.95,81.95,0,0,1-11.195,7.7Z" transform="translate(-347.217 -91.222)" fill="#5ae4a8"/>
          <path id="Path_423" data-name="Path 423" d="M390.477,265.17s-.562-3.26-5.914-7.03-8.725-5.87-8.725-5.87-.985,7.908,4.033,11.713a81.033,81.033,0,0,0,11.625,7.03Z" transform="translate(-350.406 -92.733)" fill="#5ae4a8"/>
          <path id="Path_424" data-name="Path 424" d="M389.852,279.893s.281-3.3-3.936-8.3-6.96-7.909-6.96-7.909-2.953,7.382.94,12.355a81.693,81.693,0,0,0,9.456,9.781Z" transform="translate(-349.851 -89.75)" fill="#5ae4a8"/>
          <path id="Path_425" data-name="Path 425" d="M366.855,199.137a93.764,93.764,0,0,0,3,9.9c3.41,9,8.955,14.227,12.215,22.329s0,19.833,3.216,30.4,8.506,15.817,8.55,23.269-2.882,28.041-2.882,28.041" transform="translate(-352.733 -106.613)" fill="none" stroke="#263238" stroke-linecap="round" stroke-linejoin="round" stroke-width="1.177"/>
          <line id="Line_64" data-name="Line 64" x1="5.562" y1="2.918" transform="translate(10.783 98.024)" fill="none" stroke="#263238" stroke-linecap="round" stroke-linejoin="round" stroke-width="1.177"/>
          <line id="Line_65" data-name="Line 65" y1="4.016" x2="1.424" transform="translate(15.37 92.629)" fill="none" stroke="#263238" stroke-linecap="round" stroke-linejoin="round" stroke-width="1.177"/>
          <path id="Path_426" data-name="Path 426" d="M380.606,225.4s-4.648-2.372-9.411-4.727" transform="translate(-351.599 -100.987)" fill="none" stroke="#263238" stroke-linecap="round" stroke-linejoin="round" stroke-width="1.177"/>
          <path id="Path_427" data-name="Path 427" d="M376.142,222.219a66.814,66.814,0,0,1,5.378-12.443" transform="translate(-350.306 -103.834)" fill="none" stroke="#263238" stroke-linecap="round" stroke-linejoin="round" stroke-width="1.177"/>
          <path id="Path_428" data-name="Path 428" d="M383.084,248.846A51.635,51.635,0,0,0,372.24,238.6" transform="translate(-351.326 -96.304)" fill="none" stroke="#263238" stroke-linecap="round" stroke-linejoin="round" stroke-width="1.177"/>
          <path id="Path_429" data-name="Path 429" d="M382.1,253.081a58.376,58.376,0,0,1,2.988-9.227c1.757-3.963,2.056-4.481,2.056-4.481" transform="translate(-348.75 -96.102)" fill="none" stroke="#263238" stroke-linecap="round" stroke-linejoin="round" stroke-width="1.177"/>
          <path id="Path_430" data-name="Path 430" d="M388.056,273.689a48.491,48.491,0,0,1,5.985-6.213,32.152,32.152,0,0,0,3.883-3.383" transform="translate(-347.194 -89.644)" fill="none" stroke="#263238" stroke-linecap="round" stroke-linejoin="round" stroke-width="1.177"/>
          <path id="Path_431" data-name="Path 431" d="M390.506,269.792a55.917,55.917,0,0,0-5-6.854,49.1,49.1,0,0,0-5.887-5.457" transform="translate(-349.398 -91.371)" fill="none" stroke="#263238" stroke-linecap="round" stroke-linejoin="round" stroke-width="1.177"/>
          <path id="Path_432" data-name="Path 432" d="M388.749,284.478a14.169,14.169,0,0,0-2.478-7.03c-2.293-3.023-4.991-7.03-6.08-8.6" transform="translate(-349.249 -88.403)" fill="none" stroke="#263238" stroke-linecap="round" stroke-linejoin="round" stroke-width="1.177"/>
          <path id="Path_433" data-name="Path 433" d="M414.534,325.748h-33.12a2.47,2.47,0,0,1-2.469-2.47l-4.754-36.653h47.566L417,323.278A2.47,2.47,0,0,1,414.534,325.748Z" transform="translate(-350.816 -83.758)" fill="#263238"/>
          <path id="Path_434" data-name="Path 434" d="M422.108,293.078H374.963a3.725,3.725,0,0,1-3.726-3.69h0a3.717,3.717,0,0,1,3.717-3.717h47.154a3.717,3.717,0,0,1,3.726,3.708v.009h0A3.726,3.726,0,0,1,422.108,293.078Z" transform="translate(-351.588 -84.007)" fill="#263238"/>
        </g>
      </g>
    </g>
    <g id="Character" transform="translate(287.716 -360.449)">
      <g id="Group_474" data-name="Group 474" transform="translate(0 0)">
        <g id="Group_471" data-name="Group 471" transform="translate(0 85.395)">
          <g id="Group_470" data-name="Group 470">
            <path id="Path_451" data-name="Path 451" d="M399.044,449.659a166.516,166.516,0,0,1-41.424,35.756,146.131,146.131,0,0,1-15.129,7.894c-35.832,16.112-76.671,17.157-114.869,7.9-80.3-19.46-122.9-90.342-128.309-169.026-1.459-21.272-4.716-44.234,3.9-64.462,8.54-20.059,26.033-32.776,45.739-41.53,14.3-6.359,29.75-10.644,43.789-14.131a112.647,112.647,0,0,1,75.781,7.818c16.511,7.832,28.276,21.394,42.161,32.9,1.474,1.213,2.949,2.427,4.438,3.625a414.058,414.058,0,0,0,44.173,31.04c23.346,14.238,47.244,27.677,62.158,51.591C445.228,377.135,425.153,418.635,399.044,449.659Z" transform="translate(-97.482 -208.755)" fill="#a8f0cb"/>
            <path id="Path_453" data-name="Path 453" d="M315.122,256.393q-2.23-1.8-4.438-3.624c-13.889-11.5-25.652-25.063-42.16-32.9a112.651,112.651,0,0,0-75.783-7.817c-33.381,8.285-74.793,21.041-89.528,55.661-8.611,20.23-5.358,43.189-3.9,64.456,5.408,78.688,48,149.571,128.3,169.032,43.7,10.591,90.837,7.695,130.007-15.795a166.314,166.314,0,0,0,41.409-35.752c26.112-31.023,46.2-72.527,22.422-110.631-14.917-23.909-38.812-37.347-62.167-51.586A415.152,415.152,0,0,1,315.122,256.393Z" transform="translate(-97.481 -208.755)" fill="none" stroke="#263238" stroke-width="1"/>
            <path id="Path_454" data-name="Path 454" d="M177.566,357.78a115.458,115.458,0,0,0-19.382,7.8" transform="translate(-81.623 -169.824)" fill="none" stroke="#263238" stroke-linecap="round" stroke-linejoin="round" stroke-width="1"/>
            <path id="Path_455" data-name="Path 455" d="M212.064,351.6a205.667,205.667,0,0,0-29.077,4.593" transform="translate(-75.144 -171.437)" fill="none" stroke="#263238" stroke-linecap="round" stroke-linejoin="round" stroke-width="1"/>
            <path id="Path_456" data-name="Path 456" d="M216.479,352.311s-37.69-21.922-83.173-4.351" transform="translate(-88.123 -174.171)" fill="none" stroke="#263238" stroke-linecap="round" stroke-linejoin="round" stroke-width="1"/>
          </g>
          <path id="Path_457" data-name="Path 457" d="M395.007,449.659a166.516,166.516,0,0,1-41.424,35.756,146.131,146.131,0,0,1-15.129,7.894,116.882,116.882,0,0,1-12.071-4.423C302.853,478.78,283.1,461.731,263.8,444.9c-11.643-10.137-23.468-20.427-37.4-27.078a86.043,86.043,0,0,0-60.345-4.96,67.806,67.806,0,0,1,39.9-21.963c-9.952-9.062-23.821-12.871-37.291-13.117-13.47-.261-20.889,1.413-34.036,4.363,4.393-8.095,16.081-15.421,25.3-15.206-9.216-.216-19.737-.83-26.2-1.859-11.9-1.92-17.218-15.912-19-27.814-4.915-32.777.062-67.719,17.955-95.595a97.218,97.218,0,0,1,12.24-15.482c14.3-6.359,29.75-10.644,43.789-14.131a112.647,112.647,0,0,1,75.781,7.818c16.511,7.832,28.276,21.394,42.161,32.9,1.474,1.213,2.949,2.427,4.438,3.625a414.058,414.058,0,0,0,44.173,31.04c23.346,14.238,47.244,27.677,62.158,51.591C441.192,377.135,421.116,418.635,395.007,449.659Z" transform="translate(-93.445 -208.755)" opacity="0.1"/>
        </g>
        <path id="Path_458" data-name="Path 458" d="M350.951,399.023A243.989,243.989,0,0,0,373.1,415.35c15,1.008,8.274,19.141,8.274,19.141l-12.839,8.251s-21.929-17.43-33.9-23.093S350.951,399.023,350.951,399.023Z" transform="translate(-36.297 -73.655)" fill="#fff"/>
        <g id="Group_473" data-name="Group 473" transform="translate(45.08)">
          <path id="Path_459" data-name="Path 459" d="M296.285,258.579s-2.06-20.346-5.334-26.064l-49.8-10.176v-3.854s1.148-6.714-9.952-10.912-34.224,1.26-40.188,5.773-3.781,12.283-3.781,12.283S167.17,235.8,158.147,239.662s-21.541,11.351-21.541,11.351-4.078,46.757-3.279,57.616-.648,21.075.279,27.094,1.665,9.439,7.98,14.557,12.034,12.676,28.576,5.18l-2.307-1.825,108.9-36.615Z" transform="translate(-133.224 -124.062)" opacity="0.3"/>
          <path id="Path_460" data-name="Path 460" d="M296.285,258.579s-2.06-20.346-5.334-26.064l-49.8-10.176v-3.854s1.148-6.714-9.952-10.912-34.224,1.26-40.188,5.773-3.781,12.283-3.781,12.283S167.17,235.8,158.147,239.662s-21.541,11.351-21.541,11.351-4.078,46.757-3.279,57.616-.648,21.075.279,27.094,1.665,9.439,7.98,14.557,12.034,12.676,28.576,5.18l-2.307-1.825,108.9-36.615Z" transform="translate(-133.224 -124.062)" fill="#57d89f"/>
          <path id="Path_462" data-name="Path 462" d="M290.482,228.985H269.651a8.276,8.276,0,0,0-8.164,6.919l-10.269,61.845s-14.135,1.177-24.149,8.486-34.645-44.8-73.573-44.826c0,0,11.2,25.6,13.688,46.03,0,0-24.331-2.647-28.372,6.873s1.836,27.368,12.122,20.464,19.924-18.462,26.859-11.214,37.583,11.214,37.583,11.214l47.26-23.742,18.33-8.617Z" transform="translate(-132.1 -118.076)" opacity="0.1"/>
          <path id="Path_463" data-name="Path 463" d="M214.412,204.712s11.836,3.283,13.751,7.248,1.719,14.024,1.719,14.024-3.224,8.931-12.73,17.507l-8.834-17.507.792,19.86s-16.748-2.787-23.854-8.144l-7.107-5.358s-3.059-10.053-2.625-13.5,13.251-10.362,13.251-10.362Z" transform="translate(-122.184 -124.417)" fill="#fff" opacity="0.4"/>
          <path id="Path_464" data-name="Path 464" d="M375.049,457.763c-.323-.728,4.861-9.874.8-19.2s-10.531-5.73-10.531-5.73-18.426-11.726-26.172-15.43a133.15,133.15,0,0,1-16.08-9.56l-8.182,11.019,7.562,23.412Z" transform="translate(-85.766 -71.351)" fill="#4fcd97"/>
          <path id="Path_465" data-name="Path 465" d="M354.336,436.912,378,451.374s16.631-10.674,24.57-18.042,25.692-23.047,25.692-23.047l11.331-15.279s-7.875-9.737-20.991-1.911c-16.952,10.114-37.622,24.738-51.416,24.6,0,0,2.721,16.94-12.851,19.219" transform="translate(-75.46 -75.998)" fill="#4dcd96"/>
          <path id="Path_466" data-name="Path 466" d="M211.686,156.226s10.741,16.244,12.694,21.5,3.53,13.046,3.132,16.788-4.316,23.811-6.344,24.4l-1.9,2.153,1.221,8.5s-8.4,14.526-33.1,3.878c0,0-.964-16.959-3.965-22.279s-7.494,1.009-11.988-14.366,9.836-31.463,9.836-31.463Z" transform="translate(-123.469 -137.084)" fill="#fff"/>
          <path id="Path_467" data-name="Path 467" d="M425.053,390.223s-12.158,2.111-16.11,9.312S397.418,420.126,394.83,426.6s-23.984,22.1-23.984,22.1l2.842,2.632s17.409-10.763,27.909-20.99,33.68-35.958,33.68-35.958S433.622,392.727,425.053,390.223Z" transform="translate(-71.147 -75.954)" fill="#fff" opacity="0.5"/>
          <path id="Path_468" data-name="Path 468" d="M317.887,413.374l-3,4.042,9.251,19.2,50.913,18.3,2.361-7.459s.787-7.593-17.085-13.312-28.768-9.546-33.85-13.5S317.887,413.374,317.887,413.374Z" transform="translate(-85.766 -69.905)" fill="#fff" opacity="0.5"/>
          <path id="Path_469" data-name="Path 469" d="M190.09,303.753s-15.59-2.34-22.869,10.413-6.535,18.273-6.535,18.273,10.3,9.36,24.461,8.88,34.807-16.8,41.528-22.083,23.675-20.4,35.242-17.283l1.276-10.936s-1.125-4.9-11.019-3.584S238.4,294.4,235.217,294.4s-6.205-3.069-12.655,7.884C222.562,302.283,200.073,306.273,190.09,303.753Z" transform="translate(-126.055 -102.866)" fill="#fff"/>
          <path id="Path_470" data-name="Path 470" d="M200.064,174.753a42.659,42.659,0,0,0,1.413,6.036,6.885,6.885,0,0,0,1.319,2.662c1.192,1.305,3.1,1.594,4.849,1.859a1.222,1.222,0,0,1,.788.328,1.156,1.156,0,0,1,.185.753,10.053,10.053,0,0,1-1.709,5.571" transform="translate(-115.762 -132.244)" fill="none" stroke="#263238" stroke-linecap="round" stroke-linejoin="round" stroke-width="1"/>
          <path id="Path_473" data-name="Path 473" d="M194.237,190.669s8.184,6.418,16.69,4.012C210.927,194.681,202.9,210.568,194.237,190.669Z" transform="translate(-117.285 -128.086)" fill="#fff" stroke="#263238" stroke-linecap="round" stroke-linejoin="round" stroke-width="1"/>
          <path id="Path_474" data-name="Path 474" d="M194.718,180.288c.237,1.767-.3,3.3-1.187,3.417s-1.806-1.217-2.042-2.984.294-3.3,1.186-3.417S194.483,178.521,194.718,180.288Z" transform="translate(-118.017 -131.579)" fill="#263238"/>
          <path id="Path_475" data-name="Path 475" d="M208.807,177.745c.237,1.767-.294,3.3-1.186,3.415s-1.806-1.216-2.043-2.984.3-3.3,1.187-3.415S208.572,175.978,208.807,177.745Z" transform="translate(-114.336 -132.244)" fill="#263238"/>
          <path id="Path_476" data-name="Path 476" d="M194.706,173.85s-4.771-2.459-8.167,2.809" transform="translate(-119.296 -132.629)" fill="none" stroke="#263238" stroke-linecap="round" stroke-linejoin="round" stroke-width="1"/>
          <path id="Path_477" data-name="Path 477" d="M202.69,171.531s5.035-4.332,7.961,0" transform="translate(-115.076 -133.589)" fill="none" stroke="#263238" stroke-linecap="round" stroke-linejoin="round" stroke-width="1"/>
          <path id="Path_478" data-name="Path 478" d="M182.246,187.508s-3.069-4.53-6.284-4.384-4.53,4.677-3.361,9.061,5.991,10.523,9.645,9.937a8.105,8.105,0,0,0,5.262-2.922" transform="translate(-123.047 -130.058)" fill="none" stroke="#263238" stroke-linecap="round" stroke-linejoin="round" stroke-width="1"/>
          <path id="Path_479" data-name="Path 479" d="M206.809,159.134c3.449,2.854,7.088,5.98,8.893,10.186,1.536,3.583,1.886,7.546,3.293,11.182,1.5,3.876,3.149,7.929,3.273,12.153.114,3.847-.76,7.845-1.526,11.59a63.992,63.992,0,0,1-2.338,9.694c-1.7,4.528-4.842,7.313-9.057,9.464-3.066,1.564-8.174,3.811-11.486,1.691-1.931-1.235-4.827-4.866-7.241-8.187" transform="translate(-118.229 -136.324)" fill="none" stroke="#263238" stroke-linecap="round" stroke-linejoin="round" stroke-width="1"/>
          <path id="Path_480" data-name="Path 480" d="M180.161,198.186s5.421,13.3,4.105,22.651" transform="translate(-120.962 -126.122)" fill="none" stroke="#263238" stroke-linecap="round" stroke-linejoin="round" stroke-width="1"/>
          <path id="Path_481" data-name="Path 481" d="M183.837,196.265a5.247,5.247,0,0,0,2.1-4.678c-.2-2.046-1.623-3.934-1.341-5.971a10.881,10.881,0,0,1,1.085-2.811,11.738,11.738,0,0,0-.652-10.612s17.225.806,25.3-4.33,14.219-18.257,9.341-24.532-14.388,2.282-21.425,3.233-32.14,4.945-36.135,14.644,2.092,13.131,2.282,22.351.18,26.683,13.973,25.084c0,0-5.156-6.672-1.577-13.551C179.23,192.162,183.837,196.265,183.837,196.265Z" transform="translate(-126.031 -141.049)" fill="#263238"/>
          <path id="Path_482" data-name="Path 482" d="M207.591,151.5a21.612,21.612,0,0,1,8.25,15.145c.768,6.914,13.035,20.344,4.195,28.006,0,0-2.062-8.14-3.273-12.153s-2.755-11.332-4.789-13.89-12.807-11.3-12.807-11.3Z" transform="translate(-115.997 -138.319)" fill="#263238"/>
          <path id="Path_483" data-name="Path 483" d="M183,217.589s8.5,5.591,24.292,5.827l1.845,21.176s-17.748-1.355-30.961-13.5c0,0-3.567-9.444-2.625-13.5s9.4-8.087,9.4-8.087" transform="translate(-122.208 -123.166)" fill="none" stroke="#263238" stroke-linecap="round" stroke-linejoin="round" stroke-width="1"/>
          <path id="Path_484" data-name="Path 484" d="M212.107,208.724l.508,7.537a31.316,31.316,0,0,1-11.933,7.765l9.887,18.824s11.785-9.177,12.962-18.824c0,0,.1-9.883-1.951-12.707s-9.548-4.153-9.548-4.153" transform="translate(-115.601 -123.776)" fill="none" stroke="#263238" stroke-linecap="round" stroke-linejoin="round" stroke-width="1"/>
          <path id="Path_485" data-name="Path 485" d="M171.8,166.261c1.279-3.17,4.712-4.989,8.082-5.557s6.818-.146,10.234-.236a26.262,26.262,0,0,0,13.364-3.756,17.928,17.928,0,0,0,8.077-11.048" transform="translate(-123.146 -139.843)" fill="none" stroke="#fff" stroke-linecap="round" stroke-linejoin="round" stroke-width="1" opacity="0.8"/>
          <path id="Path_486" data-name="Path 486" d="M165.347,164.825c2.139-6.476,9.048-10.467,15.845-11.045,3.366-.285,6.77.111,10.126-.284s6.847-1.78,8.6-4.667" transform="translate(-124.832 -139.016)" fill="none" stroke="#fff" stroke-linecap="round" stroke-linejoin="round" stroke-width="1" opacity="0.8"/>
          <path id="Path_487" data-name="Path 487" d="M170.141,351.409c-16.37,8.5-22.222-.243-31.352-7.484s-3.148-20.148-5.037-40.926,2.834-56.037,2.834-56.037,4.093-.945,15.425-7.876,35.2-17.507,35.2-17.507" transform="translate(-133.202 -120.011)" fill="none" stroke="#263238" stroke-linecap="round" stroke-linejoin="round" stroke-width="1"/>
          <path id="Path_488" data-name="Path 488" d="M183.076,301.378s-2.6-8.236-9.946-8.459-18.917,3.093-27.157,18.7" transform="translate(-129.893 -101.376)" fill="none" stroke="#263238" stroke-linecap="round" stroke-linejoin="round" stroke-width="1"/>
          <path id="Path_489" data-name="Path 489" d="M170.357,292.984a3.781,3.781,0,0,1-1.324-.315,31.9,31.9,0,0,0-18.844-.851" transform="translate(-128.792 -101.931)" fill="none" stroke="#263238" stroke-linecap="round" stroke-linejoin="round" stroke-width="1"/>
          <path id="Path_490" data-name="Path 490" d="M146.844,250.63c13.346,14.755,19.86,34.279,26.028,53.194" transform="translate(-129.666 -112.421)" fill="none" stroke="#263238" stroke-linecap="round" stroke-linejoin="round" stroke-width="1"/>
          <path id="Path_491" data-name="Path 491" d="M218.8,218.97s24.22,5.775,36.045,7.15,13.75,3.026,13.75,3.026l2.2,8.25" transform="translate(-110.868 -120.692)" fill="none" stroke="#263238" stroke-linecap="round" stroke-linejoin="round" stroke-width="1"/>
          <path id="Path_492" data-name="Path 492" d="M326.754,230.376l-82.477,3.171-6.739,84.822h14.13l71.61-16.04,9.009-69.913Z" transform="translate(-105.972 -117.712)" fill="#fff"/>
          <g id="Group_472" data-name="Group 472" transform="translate(135.862 116.704)">
            <path id="Path_493" data-name="Path 493" d="M240.944,320.044l90.2-86.465-8.752,67.913Z" transform="translate(-240.944 -233.579)" fill="#92e3a9"/>
            <path id="Path_494" data-name="Path 494" d="M240.944,320.044l90.2-86.465-8.752,67.913Z" transform="translate(-240.944 -233.579)" fill="#fff" opacity="0.7"/>
          </g>
          <path id="Path_495" data-name="Path 495" d="M240.944,318.177l7.208-81.814,83.247-4.37-9.009,69.913Z" transform="translate(-105.083 -117.29)" fill="none" stroke="#263238" stroke-linecap="round" stroke-linejoin="round" stroke-width="1"/>
          <path id="Path_496" data-name="Path 496" d="M286.9,265.4c-.563,4.982-3.222,8.771-5.942,8.463s-4.469-4.593-3.906-9.575,3.224-8.769,5.943-8.463S287.466,260.422,286.9,265.4Z" transform="translate(-95.676 -111.068)" fill="#263238"/>
          <path id="Path_497" data-name="Path 497" d="M319.7,287.436s38.115-1.083,50.037,6.785,18.91,47.336,17.266,68.3-16.033,69.066-16.033,69.066l-27.544-31.244s-13.567-49.332-6.166-68.655c0,0-36.589,2.056-50.977-2.467,0,0-12.905-21.121-35.023-28.116Z" transform="translate(-102.389 -102.819)" fill="#263238"/>
          <path id="Path_498" data-name="Path 498" d="M394.352,429.987a188.181,188.181,0,0,1-26.2-30.211c-13.333-20.6-31.763-40.409-50.716-55.784-15.283-12.4-18.738-32.577-37.584-42.7-31.209-16.742-58.2,16.526-68.285,23.254s-27.57,14.315-27.57,14.315,6.373,23.913,25.111,26.8,37.706-10.091,46.723-3.841c9.015,6.236,15.6,34.113,45.216,50.455,24.206,13.346,57.182,26.371,74.2,35.141,3.809,1.966,6.61,4.037,8.754,5.206,5.877,3.2,12.158,6.985,18.082,10.714l20.42,12.437s20.49-12.12,28.36-23.3c1.059-1.5,3.233-5.5,5.276-9.365,4.458-8.428,10.066-16,17.9-20.205,5.4-2.9,10.21-3.8,10.055-4.081-.521-.962-10.3-5.964-16.955-3.226-14.074,5.807-42.208,28.147-55.448,26.494A99.2,99.2,0,0,1,394.352,429.987Z" transform="translate(-119.96 -100.402)" fill="none" stroke="#263238" stroke-width="1"/>
          <path id="Path_499" data-name="Path 499" d="M394.35,429.987c-12.272,4.962-17.219,12.595-19.107,17.433-17.018-8.769-49.994-21.794-74.2-35.141-29.611-16.342-36.2-44.219-45.216-50.455-9.017-6.251-27.984,6.727-46.723,3.841S184,338.856,184,338.856s17.477-7.576,27.568-14.3,33.357-40.005,68.28-23.259c19.291,9.251,22.3,30.3,37.584,42.7,18.953,15.375,37.383,35.187,50.716,55.784A184.932,184.932,0,0,0,394.35,429.987Z" transform="translate(-119.959 -100.402)" fill="#263238"/>
          <path id="Path_500" data-name="Path 500" d="M282.757,322.341s-9.445-19.2-24.6-22.923" transform="translate(-100.586 -99.676)" fill="none" stroke="#fff" stroke-linecap="round" stroke-linejoin="round" stroke-width="1"/>
          <path id="Path_501" data-name="Path 501" d="M258.708,287.351c-10.422-2.274-21.861,9.244-26.678,7.088-3.583-1.6-9.473,7.884-9.473,7.884s-15.253,2.356-29.289,1.471-20.688,1.84-25.654,9.355l-6.933,18.366s18.292,16.418,37.842,6.852,45.5-38.346,63.388-38.246" transform="translate(-126.051 -102.906)" fill="none" stroke="#263238" stroke-linecap="round" stroke-linejoin="round" stroke-width="1"/>
          <path id="Path_502" data-name="Path 502" d="M353.706,430.759s17.114,1.406,13.1-19.03" transform="translate(-75.624 -70.335)" fill="none" stroke="#263238" stroke-width="1"/>
          <path id="Path_503" data-name="Path 503" d="M423.92,403.862c-1.3,2.575-16.946,15.865-30.455,27.533.04-.182,3.736-7.3,5.358-10.341,3.584-6.712,12.867-25.115,30.545-27.534C431.876,395.03,423.92,403.862,423.92,403.862Z" transform="translate(-65.238 -75.092)" fill="#263238"/>
          <path id="Path_504" data-name="Path 504" d="M423.1,390.326c-17.868,3.567-21.925,26.462-28.273,36.244s-23.984,23-23.984,23" transform="translate(-71.147 -75.927)" fill="none" stroke="#263238" stroke-width="1"/>
          <path id="Path_505" data-name="Path 505" d="M375.85,439.6c2.9,5.33,1.532,11.505,0,15.376a31.887,31.887,0,0,1-2.8,5.512c-25.3-4.158-50.6-17.752-50.6-17.752l-6.523-20.185-1.039-3.228,9.819-13.224" transform="translate(-85.766 -71.807)" fill="none" stroke="#263238" stroke-width="1"/>
          <path id="Path_506" data-name="Path 506" d="M375.634,451.563a31.888,31.888,0,0,1-2.8,5.512c-25.3-4.158-50.6-17.752-50.6-17.752l-6.523-20.185c3.268,4.267,9.327,10.5,18.407,13.074C346.438,435.7,369.181,439.788,375.634,451.563Z" transform="translate(-85.551 -68.4)" fill="#263238"/>
          <path id="Path_507" data-name="Path 507" d="M237.539,315.418l6.739-81.87,82.477-3.171,5.534,2.04" transform="translate(-105.972 -117.712)" fill="none" stroke="#263238" stroke-linecap="round" stroke-linejoin="round" stroke-width="1"/>
          <path id="Path_508" data-name="Path 508" d="M363.949,424.884s11.282,2.012,19.94-5.058,22.628-23.043,22.628-23.043" transform="translate(-72.948 -74.24)" fill="none" stroke="#263238" stroke-width="1"/>
          <path id="Path_509" data-name="Path 509" d="M373.349,410.976s-2.719,4.1,0,12.332" transform="translate(-70.808 -70.532)" fill="none" stroke="#263238" stroke-linecap="round" stroke-linejoin="round" stroke-width="1"/>
          <path id="Path_510" data-name="Path 510" d="M379.589,407.889a16.818,16.818,0,0,0,1.019,12.329" transform="translate(-69.052 -71.338)" fill="none" stroke="#263238" stroke-linecap="round" stroke-linejoin="round" stroke-width="1"/>
          <path id="Path_511" data-name="Path 511" d="M387.2,403.507s-2.284,6.854,0,12.9" transform="translate(-67.139 -72.483)" fill="none" stroke="#263238" stroke-linecap="round" stroke-linejoin="round" stroke-width="1"/>
        </g>
      </g>
    </g>
  </g>
</svg>
