<svg id="logo_navbar_dark" xmlns="http://www.w3.org/2000/svg" xmlns:xlink="http://www.w3.org/1999/xlink" width="102.221" height="30" viewBox="0 0 102.221 30">
  <defs>
    <clipPath id="clip-path">
      <rect id="Rectangle_216" data-name="Rectangle 216" width="102.221" height="30" fill="none"/>
    </clipPath>
  </defs>
  <g id="Group_482" data-name="Group 482" clip-path="url(#clip-path)">
    <path id="Path_514" data-name="Path 514" d="M33.636,21.074a8.546,8.546,0,0,1-1.281,4.773A8.372,8.372,0,0,1,27.769,28.9,30.332,30.332,0,0,1,18.595,30H0q.331-8.016.331-15T0,0H9.711V.041h8.8a30.532,30.532,0,0,1,8.078.847,7.723,7.723,0,0,1,4.173,2.459,6.594,6.594,0,0,1,1.219,4.091,6.533,6.533,0,0,1-1.756,4.484q-1.757,1.963-6.012,3.161,9.422,0,9.422,5.992M9.711,7.562v3.843h7.934a9.7,9.7,0,0,0,3.574-.455A1.656,1.656,0,0,0,22.231,9.3a1.385,1.385,0,0,0-1.054-1.343,11.183,11.183,0,0,0-3.533-.393Zm7.934,14.876a21.827,21.827,0,0,0,3.285-.186,3.055,3.055,0,0,0,1.632-.661,1.716,1.716,0,0,0,.5-1.3,1.616,1.616,0,0,0-1.178-1.55,12.816,12.816,0,0,0-4.235-.475H9.711v4.174Z" fill="#fff"/>
    <path id="Path_515" data-name="Path 515" d="M196.765,22.438q15.7-.082,22.769-.455a26.043,26.043,0,0,0-.351,3.492q-.062,1.8-.062,4.525H187.013q.33-8.016.331-15t-.331-15h32.108V7.479H196.765v3.967q1.983.042,5.868.041,6.57,0,13.6-.248v7.107q-7.026-.247-13.6-.248-3.885,0-5.868.041Z" transform="translate(-150.071)" fill="#fff"/>
    <path id="Path_516" data-name="Path 516" d="M463.5,135.161l0,.766-1.25,1.246-.766,0Z" transform="translate(-370.323 -108.462)" fill="#5ae4a8"/>
    <path id="Path_517" data-name="Path 517" d="M451.156,119.771v.766l-4.3,4.281-.766,0Z" transform="translate(-357.973 -96.112)" fill="#5ae4a8"/>
    <path id="Path_518" data-name="Path 518" d="M438.8,104.371v.04l0,.729-7.34,7.315h-.77Z" transform="translate(-345.607 -83.754)" fill="#5ae4a8"/>
    <path id="Path_519" data-name="Path 519" d="M436.049,87.5l0,1.353-2.426,2.416a.473.473,0,0,1-.425.132l-5.944,5.92,0-.766v0l5.559-5.537a.478.478,0,0,1,.132-.425Z" transform="translate(-342.855 -70.216)" fill="#5ae4a8"/>
    <path id="Path_520" data-name="Path 520" d="M436.079,72.331l0,1.165L431.451,78.1a.478.478,0,0,1-.427.132l-3.741,3.728,0-.768,3.356-3.344a.479.479,0,0,1,.134-.425l5.3-5.276c.006.059.008.119.008.18" transform="translate(-342.879 -57.898)" fill="#5ae4a8"/>
    <path id="Path_521" data-name="Path 521" d="M431.813,63.039,425.427,69.4a.476.476,0,0,1-.425.132l-2.106,2.1a2.51,2.51,0,0,0-.383-.383l2.106-2.1a.473.473,0,0,1,.132-.425l6.386-6.362a2.5,2.5,0,0,1,.676.677" transform="translate(-339.051 -50.043)" fill="#5ae4a8"/>
    <path id="Path_522" data-name="Path 522" d="M419.838,60.111l-5.3,5.278a.473.473,0,0,1-.425.13l-3.356,3.344-.766,0,3.739-3.726a.473.473,0,0,1,.132-.425l4.626-4.611h0l1.164,0c.061,0,.122,0,.182.008" transform="translate(-329.004 -48.229)" fill="#5ae4a8"/>
    <path id="Path_523" data-name="Path 523" d="M404.456,60.073l-3.105,3.093a.477.477,0,0,1-.425.13l-5.557,5.537h0l-.765,0,5.94-5.918a.478.478,0,0,1,.132-.425l2.426-2.418Z" transform="translate(-316.654 -48.205)" fill="#5ae4a8"/>
    <path id="Path_524" data-name="Path 524" d="M394.654,60.043l-8.111,8.081v-.766l7.344-7.317.727,0Z" transform="translate(-310.186 -48.181)" fill="#5ae4a8"/>
    <path id="Path_525" data-name="Path 525" d="M391.63,60.021l-5.067,5.049,0-.768,4.3-4.281Z" transform="translate(-310.202 -48.165)" fill="#5ae4a8"/>
    <path id="Path_526" data-name="Path 526" d="M388.612,59.993,386.593,62l0-.766,1.25-1.246Z" transform="translate(-310.226 -48.141)" fill="#5ae4a8"/>
    <path id="Path_527" data-name="Path 527" d="M443.546,21.145l0-2.3-8.173,8.143,2.3,0Z" transform="translate(-349.374 -15.12)" fill="#5ae4a8"/>
    <path id="Path_528" data-name="Path 528" d="M455.652,36.237l0-2.3L450.469,39.1l1.668,0a2.551,2.551,0,0,1,.571.066Z" transform="translate(-361.485 -27.23)" fill="#5ae4a8"/>
    <path id="Path_529" data-name="Path 529" d="M432.3,17.427l3-2.988-2.993-.006Z" transform="translate(-346.902 -11.582)" fill="#5ae4a8"/>
    <path id="Path_530" data-name="Path 530" d="M438.255,14.472l-2.3,0-3.677,3.664,0,2.3Z" transform="translate(-346.88 -11.61)" fill="#5ae4a8"/>
    <path id="Path_531" data-name="Path 531" d="M476.417,55.326l-2.3,0-2.8,2.792a2.547,2.547,0,0,1,.1.712l0,1.492Z" transform="translate(-378.209 -44.394)" fill="#5ae4a8"/>
    <path id="Path_532" data-name="Path 532" d="M464.355,51.453a2.563,2.563,0,0,1,1.18,1.124l2.319-2.311-1.063,0,0-1.241Z" transform="translate(-372.628 -39.34)" fill="#5ae4a8"/>
    <path id="Path_533" data-name="Path 533" d="M471.767,64.019v.12l.956,0,1.229,0,6.841-6.816,0-1.949h-.355Z" transform="translate(-378.575 -44.438)" fill="#5ae4a8"/>
    <path id="Path_534" data-name="Path 534" d="M432.246,21.134l0,2.3,8.794-8.762V14.5l-2.127,0Z" transform="translate(-346.858 -11.632)" fill="#5ae4a8"/>
    <path id="Path_535" data-name="Path 535" d="M501.344,86.931l3.171.006.006-3.17Z" transform="translate(-402.31 -67.22)" fill="#5ae4a8"/>
    <path id="Path_536" data-name="Path 536" d="M479.769,55.354l-2.3,0-5.688,5.667,0,2.3Z" transform="translate(-378.58 -44.416)" fill="#5ae4a8"/>
    <path id="Path_537" data-name="Path 537" d="M492.411,70.98l0-2.3-6.163,6.14,2.3,0Z" transform="translate(-390.2 -55.11)" fill="#5ae4a8"/>
  </g>
</svg>
