<svg xmlns="http://www.w3.org/2000/svg" width="123.709" height="162.618" viewBox="0 0 123.709 162.618">
  <g id="moeda_parallax" data-name="moeda parallax" transform="translate(-959.403 -212.452)">
    <g id="Coins" transform="translate(959.903 212.994)">
      <g id="Group_469" data-name="Group 469" transform="translate(0 0)">
        <g id="Group_466" data-name="Group 466" transform="translate(0 69.972)">
          <path id="Path_435" data-name="Path 435" d="M346.272,184.8a45.8,45.8,0,0,1-35.481,44.609c-.049.016-.083.016-.134.034-1.2.266-2.4.5-3.637.684a47.017,47.017,0,0,1-6.542.467,45.792,45.792,0,0,1-1.685-91.554c.416-.034.85-.034,1.284-.034a3.283,3.283,0,0,1,.4-.016,4.441,4.441,0,0,1,.467.016,45.09,45.09,0,0,1,17.941,3.856A45.794,45.794,0,0,1,346.272,184.8Z" transform="translate(-254.667 -138.993)" fill="#59e4a8"/>
          <path id="Path_436" data-name="Path 436" d="M317.1,142.862c-52.886-2.753-53.137,55.958-53.137,55.958s-8.077-19.16,5.107-40.388c7.359-11.866,20.194-17.105,30.089-19.426A45.09,45.09,0,0,1,317.1,142.862Z" transform="translate(-252.879 -138.99)" fill="#fff" opacity="0.4"/>
          <path id="Path_437" data-name="Path 437" d="M346.272,184.8a45.8,45.8,0,1,1-47.48-45.76c.55-.034,1.117-.05,1.685-.05A45.808,45.808,0,0,1,346.272,184.8Z" transform="translate(-254.667 -138.993)" fill="none" stroke="#263238" stroke-linecap="round" stroke-linejoin="round" stroke-width="1"/>
          <path id="Path_438" data-name="Path 438" d="M344.51,184.8a45.8,45.8,0,0,1-35.615,44.643c-.55.033-1.117.049-1.685.049a45.8,45.8,0,0,1-10.179-90.453c.55-.034,1.117-.05,1.685-.05A45.808,45.808,0,0,1,344.51,184.8Z" transform="translate(-252.904 -138.993)" fill="none" stroke="#263238" stroke-linecap="round" stroke-linejoin="round" stroke-width="1"/>
          <g id="Group_465" data-name="Group 465" transform="translate(32.081 10.712)">
            <path id="Path_439" data-name="Path 439" d="M309.612,211.247l1.187,4.837-7.916,1.941-1.187-4.837c-7.094-.03-12.784-4.6-14.6-11.991l-.537-2.2,8.732-3.168.561,2.287c1.1,4.486,4.055,6.651,7.749,5.745s5.42-3.753,4.535-7.361c-1.057-4.307-6.009-7.01-11.73-9.8-6.772-3.281-13.758-7.441-15.678-15.267-1.875-7.652.479-14.011,6.513-17.168l-1.187-4.837,7.914-1.941,1.187,4.837c6.874-.1,11.993,4.424,13.913,12.25l.388,1.583-8.733,3.167-.431-1.758c-1.165-4.75-3.617-6.759-6.87-5.961s-4.6,3.273-3.655,7.144c1.056,4.308,6.074,6.9,11.727,9.8,6.707,3.393,13.76,7.444,15.681,15.27C319.012,201.294,316,208,309.612,211.247Z" transform="translate(-280.103 -147.486)" fill="none" stroke="#263238" stroke-width="1"/>
            <path id="Path_440" data-name="Path 440" d="M309.612,211.247l1.187,4.837-7.916,1.941-1.187-4.837c-7.094-.03-12.784-4.6-14.6-11.991l-.537-2.2,8.732-3.168.561,2.287c1.1,4.486,4.055,6.651,7.749,5.745s5.42-3.753,4.535-7.361c-1.057-4.307-6.009-7.01-11.73-9.8-6.772-3.281-13.758-7.441-15.678-15.267-1.875-7.652.479-14.011,6.513-17.168l-1.187-4.837,7.914-1.941,1.187,4.837c6.874-.1,11.993,4.424,13.913,12.25l.388,1.583-8.733,3.167-.431-1.758c-1.165-4.75-3.617-6.759-6.87-5.961s-4.6,3.273-3.655,7.144c1.056,4.308,6.074,6.9,11.727,9.8,6.707,3.393,13.76,7.444,15.681,15.27C319.012,201.294,316,208,309.612,211.247Z" transform="translate(-280.103 -147.486)" opacity="0.3"/>
          </g>
          <line id="Line_66" data-name="Line 66" y1="0.443" x2="9.676" transform="translate(22.405 84.736)" fill="none" stroke="#263238" stroke-linecap="round" stroke-linejoin="round" stroke-width="1"/>
          <line id="Line_67" data-name="Line 67" y1="0.716" x2="8.444" transform="translate(17.749 81.251)" fill="none" stroke="#263238" stroke-linecap="round" stroke-linejoin="round" stroke-width="1"/>
          <line id="Line_68" data-name="Line 68" y1="0.716" x2="8.444" transform="translate(13.961 77.855)" fill="none" stroke="#263238" stroke-linecap="round" stroke-linejoin="round" stroke-width="1"/>
          <line id="Line_69" data-name="Line 69" x2="7.23" transform="translate(12.807 14.046)" fill="none" stroke="#263238" stroke-linecap="round" stroke-linejoin="round" stroke-width="1"/>
          <line id="Line_70" data-name="Line 70" y1="0.327" x2="7.198" transform="translate(16.378 10.385)" fill="none" stroke="#263238" stroke-linecap="round" stroke-linejoin="round" stroke-width="1"/>
          <line id="Line_71" data-name="Line 71" y1="0.716" x2="7.597" transform="translate(20.884 6.662)" fill="none" stroke="#263238" stroke-linecap="round" stroke-linejoin="round" stroke-width="1"/>
          <path id="Path_441" data-name="Path 441" d="M310.791,229.409c-.049.016-.083.016-.134.034a45.792,45.792,0,1,1-11.865-90.4c.416-.034.85-.034,1.284-.034-11.165,3.521-29.889,12.517-34.9,31.275C258.071,196.916,274.06,227.173,310.791,229.409Z" transform="translate(-254.667 -138.99)" opacity="0.3"/>
          <path id="Path_442" data-name="Path 442" d="M335.428,184a45.8,45.8,0,0,1-35.481,44.609c-.049.016-.083.016-.134.034-1.2.266-2.4.5-3.637.684l11.866-87.265A45.794,45.794,0,0,1,335.428,184Z" transform="translate(-243.823 -138.191)" opacity="0.1"/>
        </g>
        <g id="Group_468" data-name="Group 468" transform="translate(67.26)">
          <path id="Path_443" data-name="Path 443" d="M358.324,127.2a27.7,27.7,0,0,1-33.177,9.63c-.05-.018-.117-.05-.168-.067a28.119,28.119,0,0,1-2.587-1.252,26.345,26.345,0,0,1-2.67-1.669,27.693,27.693,0,0,1,30.507-46.194c.217.117.417.25.618.383.284.168.568.367.851.568q.651.45,1.251.951A27.689,27.689,0,0,1,358.324,127.2Z" transform="translate(-307.994 -83.514)" fill="#5ae4a8"/>
          <path id="Path_444" data-name="Path 444" d="M315.489,126.98s-4.535-13.331,1.49-23.141c7.559-12.308,19.156-17.912,34.931-14.886,0,0-8.555-5.773-22.868-1.676S307.048,111.068,315.489,126.98Z" transform="translate(-306.954 -82.915)" fill="#fff" opacity="0.4"/>
          <path id="Path_445" data-name="Path 445" d="M358.321,127.208a27.7,27.7,0,1,1-7.477-39.178c.284.175.57.366.85.564A27.706,27.706,0,0,1,358.321,127.208Z" transform="translate(-307.995 -83.514)" fill="none" stroke="#263238" stroke-linecap="round" stroke-linejoin="round" stroke-width="1"/>
          <path id="Path_446" data-name="Path 446" d="M357.371,126.706a27.7,27.7,0,0,1-33.176,9.618c-.284-.175-.569-.366-.85-.564a27.7,27.7,0,0,1,26.549-48.232c.284.175.57.366.85.564A27.706,27.706,0,0,1,357.371,126.706Z" transform="translate(-307.045 -83.012)" fill="none" stroke="#263238" stroke-linecap="round" stroke-linejoin="round" stroke-width="1"/>
          <g id="Group_467" data-name="Group 467" transform="translate(17.134 8.615)">
            <path id="Path_447" data-name="Path 447" d="M329.941,129.1l-1.1,2.8-4.587-1.8,1.1-2.8a8.983,8.983,0,0,1-3.023-11.019l.5-1.273,5.418,1.483-.521,1.326c-1.023,2.6-.319,4.7,1.822,5.542a3.438,3.438,0,0,0,4.809-2.052c.981-2.5-.52-5.56-2.371-8.936-2.2-3.984-4.2-8.479-2.414-13.015,1.744-4.435,5.128-6.754,9.21-6.207l1.1-2.8,4.587,1.8-1.1,2.8c3.431,2.35,4.379,6.373,2.6,10.909l-.361.917-5.42-1.483.4-1.02c1.082-2.752.573-4.6-1.313-5.341s-3.417.009-4.3,2.253c-.981,2.5.592,5.529,2.371,8.936,2.129,4.017,4.2,8.479,2.415,13.016A8.934,8.934,0,0,1,329.941,129.1Z" transform="translate(-321.58 -90.345)" fill="none" stroke="#263238" stroke-width="1"/>
            <path id="Path_448" data-name="Path 448" d="M329.941,129.1l-1.1,2.8-4.587-1.8,1.1-2.8a8.983,8.983,0,0,1-3.023-11.019l.5-1.273,5.418,1.483-.521,1.326c-1.023,2.6-.319,4.7,1.822,5.542a3.438,3.438,0,0,0,4.809-2.052c.981-2.5-.52-5.56-2.371-8.936-2.2-3.984-4.2-8.479-2.414-13.015,1.744-4.435,5.128-6.754,9.21-6.207l1.1-2.8,4.587,1.8-1.1,2.8c3.431,2.35,4.379,6.373,2.6,10.909l-.361.917-5.42-1.483.4-1.02c1.082-2.752.573-4.6-1.313-5.341s-3.417.009-4.3,2.253c-.981,2.5.592,5.529,2.371,8.936,2.129,4.017,4.2,8.479,2.415,13.016A8.934,8.934,0,0,1,329.941,129.1Z" transform="translate(-321.58 -90.345)" opacity="0.3"/>
          </g>
          <path id="Path_449" data-name="Path 449" d="M350.229,87.649c-7.61-1.352-17.155-2.1-22.329,1.218-9.5,6.091-15.4,13.768-15.32,26.217S324.3,136.264,324.3,136.264l.684.5a27.7,27.7,0,1,1,25.25-49.115Z" transform="translate(-307.994 -83.514)" opacity="0.3"/>
          <path id="Path_450" data-name="Path 450" d="M355.343,125.952a27.7,27.7,0,0,1-33.177,9.63c-.05-.018-.117-.05-.168-.067a28.119,28.119,0,0,1-2.587-1.252L349.968,88.3A27.689,27.689,0,0,1,355.343,125.952Z" transform="translate(-305.013 -82.264)" opacity="0.1"/>
        </g>
      </g>
    </g>
  </g>
</svg>
