<svg xmlns="http://www.w3.org/2000/svg" width="69" height="69" viewBox="0 0 69 69">
  <g id="whatsapp_icon" transform="translate(-1265 -734)">
    <g id="Ellipse_29" data-name="Ellipse 29" transform="translate(1265 734)" fill="#22d741" stroke="#5aed73" stroke-width="1">
      <circle cx="34.5" cy="34.5" r="34.5" stroke="none"/>
      <circle cx="34.5" cy="34.5" r="34" fill="none"/>
    </g>
    <path id="whatsapp" d="M32.985,37.638a19.231,19.231,0,0,0-30.257,23.2L0,70.8,10.193,68.12a19.166,19.166,0,0,0,9.188,2.338h.009a19.1,19.1,0,0,0,13.6-32.821Zm-13.6,29.582a15.95,15.95,0,0,1-8.14-2.226l-.58-.346L4.624,66.232l1.611-5.9-.381-.606a16.01,16.01,0,1,1,29.694-8.5A16.157,16.157,0,0,1,19.389,67.219Zm8.764-11.968c-.476-.242-2.84-1.4-3.282-1.559s-.762-.242-1.082.242-1.238,1.559-1.524,1.888-.563.364-1.039.121c-2.823-1.412-4.676-2.52-6.538-5.715-.494-.849.494-.788,1.412-2.624a.89.89,0,0,0-.043-.84c-.121-.242-1.082-2.607-1.481-3.568-.39-.935-.788-.805-1.082-.823-.277-.017-.6-.017-.918-.017a1.779,1.779,0,0,0-1.282.6,5.4,5.4,0,0,0-1.68,4.009,9.411,9.411,0,0,0,1.957,4.971c.242.32,3.386,5.17,8.209,7.257,3.048,1.316,4.243,1.429,5.767,1.2.927-.139,2.84-1.16,3.239-2.286a4.018,4.018,0,0,0,.277-2.286C28.95,55.607,28.629,55.485,28.153,55.251Z" transform="translate(1280.313 716.102)" fill="#fff"/>
  </g>
</svg>
